<svg width="300" height="300" viewBox="0 0 300 300" fill="none" xmlns="http://www.w3.org/2000/svg">
<path d="M151.456 297.087C231.886 297.087 297.087 231.886 297.087 151.456C297.087 71.0265 231.886 5.8252 151.456 5.8252C71.0265 5.8252 5.82524 71.0265 5.82524 151.456C5.82524 231.886 71.0265 297.087 151.456 297.087Z" fill="#17181D"/>
<path d="M107.913 229.005H107.549C85.1214 229.005 66.9175 210.801 66.9175 188.374V112.427C66.9175 90 85.1214 71.7961 107.549 71.7961H107.913C130.34 71.7961 148.544 90 148.544 112.427V188.447C148.617 210.801 130.413 229.005 107.913 229.005Z" fill="#3BACB6"/>
<path d="M199.587 152.694H198.859C176.505 152.694 158.374 134.563 158.374 112.209C158.374 89.8543 176.505 71.7233 198.859 71.7233H199.587C221.941 71.7233 240.073 89.8543 240.073 112.209C240.073 134.563 221.941 152.694 199.587 152.694Z" fill="#3BACB6"/>
</svg>
