<svg width="29" height="23" viewBox="0 0 29 23" fill="none" xmlns="http://www.w3.org/2000/svg">
<path d="M23.8846 0C25.0577 0 26.1827 0.466001 27.0122 1.29549C27.8417 2.12498 28.3077 3.25 28.3077 4.42308V18.5769C28.3077 19.75 27.8417 20.875 27.0122 21.7045C26.1827 22.534 25.0577 23 23.8846 23H4.42308C3.25 23 2.12498 22.534 1.29549 21.7045C0.466001 20.875 0 19.75 0 18.5769V4.42308C0 3.25 0.466001 2.12498 1.29549 1.29549C2.12498 0.466001 3.25 0 4.42308 0H23.8846ZM26.5385 7.00792L14.6032 14.0318C14.4904 14.098 14.3643 14.1384 14.2339 14.15C14.1036 14.1617 13.9723 14.1442 13.8495 14.099L13.7045 14.0318L1.76923 7.01146V18.5769C1.76923 19.2808 2.04883 19.9558 2.54652 20.4535C3.04422 20.9512 3.71923 21.2308 4.42308 21.2308H23.8846C24.5885 21.2308 25.2635 20.9512 25.7612 20.4535C26.2589 19.9558 26.5385 19.2808 26.5385 18.5769V7.00792ZM23.8846 1.76923H4.42308C3.71923 1.76923 3.04422 2.04883 2.54652 2.54652C2.04883 3.04422 1.76923 3.71923 1.76923 4.42308V4.95738L14.1538 12.2431L26.5385 4.95385V4.42308C26.5385 3.71923 26.2589 3.04422 25.7612 2.54652C25.2635 2.04883 24.5885 1.76923 23.8846 1.76923V1.76923Z" fill="#EEE6CE"/>
</svg>
