<svg width="19" height="200" viewBox="0 0 19 200" fill="none" xmlns="http://www.w3.org/2000/svg">
<path d="M13.8438 13.5703V14.8125L12.3984 14.8516C12.9557 15.3151 13.3594 15.7708 13.6094 16.2188C13.8594 16.6719 13.9844 17.1276 13.9844 17.5859C13.9844 18.3984 13.7214 19.013 13.1953 19.4297C12.6693 19.8516 11.888 20.0469 10.8516 20.0156V18.6406C11.5391 18.6562 12.0365 18.5547 12.3438 18.3359C12.6562 18.1224 12.8125 17.8073 12.8125 17.3906C12.8125 17.2083 12.7786 17.0234 12.7109 16.8359C12.6484 16.6536 12.5443 16.4635 12.3984 16.2656C12.2578 16.0729 12.0755 15.8672 11.8516 15.6484C11.6276 15.4297 11.3568 15.1953 11.0391 14.9453L6 14.9453V13.5703L13.8438 13.5703ZM9.98438 29.995C9.375 29.995 8.8151 29.9091 8.30469 29.7372C7.79948 29.5653 7.36458 29.3179 7 28.995C6.64063 28.6721 6.35938 28.2789 6.15625 27.8153C5.95833 27.3518 5.85938 26.8257 5.85938 26.2372C5.85938 25.6747 5.94531 25.1695 6.11719 24.7216C6.29427 24.2789 6.55208 23.9012 6.89063 23.5887C7.22917 23.2815 7.64844 23.0445 8.14844 22.8778C8.64844 22.7164 9.22396 22.6356 9.875 22.6356C10.4844 22.6356 11.0391 22.7216 11.5391 22.8934C12.0443 23.0653 12.4766 23.3127 12.8359 23.6356C13.2005 23.9585 13.4818 24.3518 13.6797 24.8153C13.8828 25.2789 13.9844 25.8049 13.9844 26.3934C13.9844 26.9559 13.8958 27.4585 13.7188 27.9012C13.5469 28.3492 13.2917 28.7268 12.9531 29.0341C12.6198 29.3466 12.2031 29.5835 11.7031 29.745C11.2031 29.9117 10.6302 29.995 9.98438 29.995ZM9.92188 28.6044C10.4063 28.6044 10.8281 28.5497 11.1875 28.4403C11.5521 28.3361 11.8542 28.1851 12.0938 27.9872C12.3385 27.7893 12.5208 27.5471 12.6406 27.2606C12.7656 26.9794 12.8281 26.6643 12.8281 26.3153C12.8281 25.9091 12.7474 25.5601 12.5859 25.2684C12.4297 24.982 12.2188 24.745 11.9531 24.5575C11.6875 24.3752 11.3776 24.2398 11.0234 24.1512C10.6745 24.0679 10.3073 24.0262 9.92188 24.0262C9.4375 24.0262 9.01302 24.0783 8.64844 24.1825C8.28385 24.2919 7.97917 24.4455 7.73438 24.6434C7.49479 24.8414 7.3125 25.0809 7.1875 25.3622C7.06771 25.6434 7.00781 25.9611 7.00781 26.3153C7.00781 26.7216 7.08594 27.0679 7.24219 27.3544C7.40365 27.646 7.61719 27.883 7.88281 28.0653C8.14844 28.2528 8.45573 28.3882 8.80469 28.4716C9.15885 28.5601 9.53125 28.6044 9.92188 28.6044ZM13.8438 33.0837L13.8438 34.2947L12.5781 34.3494C12.849 34.5785 13.0729 34.7999 13.25 35.0134C13.4323 35.227 13.5781 35.4353 13.6875 35.6384C13.7969 35.8468 13.8724 36.0577 13.9141 36.2712C13.9609 36.4848 13.9844 36.7061 13.9844 36.9353C13.9844 37.7426 13.7448 38.352 13.2656 38.7634C12.7917 39.1801 12.0755 39.3884 11.1172 39.3884H6V38.0291H11.0078C11.6224 38.0291 12.0755 37.9145 12.3672 37.6853C12.6641 37.4561 12.8125 37.115 12.8125 36.6619C12.8125 36.4952 12.7865 36.3311 12.7344 36.1697C12.6875 36.0134 12.6016 35.8494 12.4766 35.6775C12.3568 35.5056 12.1927 35.3181 11.9844 35.115C11.776 34.9171 11.5156 34.6931 11.2031 34.4431H6V33.0837H13.8438ZM6 48.0397L7.05469 48.0084C6.63281 47.5814 6.32813 47.1465 6.14063 46.7038C5.95313 46.2663 5.85938 45.8053 5.85938 45.3209C5.85938 44.873 5.91667 44.4902 6.03125 44.1725C6.14583 43.8548 6.30208 43.5918 6.5 43.3834C6.70313 43.1803 6.9401 43.0293 7.21094 42.9303C7.48177 42.8366 7.77604 42.7897 8.09375 42.7897C8.88021 42.7897 9.49479 43.0814 9.9375 43.6647C10.3854 44.2532 10.6094 45.1204 10.6094 46.2663V47.8913H11.2969C11.7604 47.8913 12.1302 47.7428 12.4063 47.4459C12.6875 47.1491 12.8281 46.6959 12.8281 46.0866C12.8281 45.6439 12.7786 45.2064 12.6797 44.7741C12.5807 44.347 12.4401 43.9043 12.2578 43.4459H13.4844C13.5469 43.6178 13.6068 43.8079 13.6641 44.0163C13.7266 44.2298 13.7813 44.4538 13.8281 44.6881C13.875 44.9225 13.9115 45.1673 13.9375 45.4225C13.9688 45.6777 13.9844 45.9355 13.9844 46.1959C13.9844 46.6699 13.9323 47.097 13.8281 47.4772C13.724 47.8574 13.5651 48.1777 13.3516 48.4381C13.138 48.7038 12.8698 48.9069 12.5469 49.0475C12.224 49.1881 11.8438 49.2584 11.4063 49.2584H6V48.0397ZM9.57031 47.8913V46.1647C9.57031 45.8261 9.53646 45.5345 9.46875 45.2897C9.40104 45.0449 9.30469 44.8444 9.17969 44.6881C9.05469 44.5319 8.90365 44.4147 8.72656 44.3366C8.55469 44.2636 8.35938 44.2272 8.14063 44.2272C7.98958 44.2272 7.84375 44.2506 7.70313 44.2975C7.56771 44.3444 7.44531 44.4199 7.33594 44.5241C7.23177 44.6282 7.14844 44.7636 7.08594 44.9303C7.02344 45.097 6.99219 45.3001 6.99219 45.5397C6.99219 45.8522 7.08594 46.209 7.27344 46.61C7.46615 47.0163 7.76823 47.4433 8.17969 47.8913H9.57031ZM15.9219 55.5894V53.2691H17.0391V56.9644H7.13281V59.3003H6L6 53.0112H7.13281L7.13281 55.5894H15.9219ZM6.28906 68.9281C6.15365 68.574 6.05469 68.2094 5.99219 67.8344C5.92448 67.4646 5.89063 67.0818 5.89063 66.6859C5.89063 65.4464 6.22656 64.4906 6.89844 63.8187C7.57031 63.1521 8.55208 62.8187 9.84375 62.8187C10.4635 62.8187 11.026 62.9151 11.5313 63.1078C12.0365 63.3005 12.4688 63.5714 12.8281 63.9203C13.1875 64.2693 13.4635 64.6859 13.6563 65.1703C13.8542 65.6547 13.9531 66.1885 13.9531 66.7719C13.9531 67.1781 13.9245 67.5583 13.8672 67.9125C13.8099 68.2667 13.7161 68.6052 13.5859 68.9281H12.2891C12.4661 68.5896 12.5938 68.2432 12.6719 67.8891C12.7552 67.5401 12.7969 67.1781 12.7969 66.8031C12.7969 66.4542 12.7292 66.1234 12.5938 65.8109C12.4635 65.5036 12.2734 65.2328 12.0234 64.9984C11.7734 64.7641 11.4688 64.5792 11.1094 64.4437C10.75 64.3083 10.3438 64.2406 9.89063 64.2406C8.94271 64.2406 8.23177 64.4698 7.75781 64.9281C7.28906 65.3917 7.05469 66.0323 7.05469 66.85C7.05469 67.2198 7.09635 67.5766 7.17969 67.9203C7.26302 68.2693 7.38802 68.6052 7.55469 68.9281H6.28906ZM14.9453 79.3216L6 75.0403V73.4856L14.9453 77.9309V72.4153H16.2109V79.3216H14.9453ZM6 89.2931L6 82.5666H7.21875L9.84375 85.2072C10.2708 85.6395 10.6406 85.991 10.9531 86.2619C11.2656 86.5327 11.5495 86.7436 11.8047 86.8947C12.0651 87.0457 12.3099 87.1473 12.5391 87.1994C12.7682 87.2515 13.0156 87.2775 13.2813 87.2775C13.5313 87.2775 13.7682 87.2436 13.9922 87.1759C14.2214 87.1082 14.4219 87.0041 14.5938 86.8634C14.7656 86.7228 14.901 86.5405 15 86.3166C15.099 86.0926 15.1484 85.8244 15.1484 85.5119C15.1484 85.0796 15.0521 84.6864 14.8594 84.3322C14.6667 83.978 14.4167 83.6525 14.1094 83.3556L15.0078 82.6056C15.4141 82.991 15.7396 83.4337 15.9844 83.9337C16.2292 84.439 16.3516 85.0249 16.3516 85.6916C16.3516 86.1447 16.2839 86.5561 16.1484 86.9259C16.013 87.3009 15.8177 87.6239 15.5625 87.8947C15.3073 88.1655 14.9948 88.3739 14.625 88.5197C14.2552 88.6707 13.8385 88.7462 13.375 88.7462C12.9844 88.7462 12.6224 88.6942 12.2891 88.59C11.9557 88.4858 11.6224 88.327 11.2891 88.1134C10.9609 87.9051 10.6198 87.6395 10.2656 87.3166C9.91146 86.9989 9.52344 86.6212 9.10156 86.1837L7.29688 84.3322L7.29688 89.2931H6ZM9.23438 99.335C8.76563 99.335 8.32552 99.2491 7.91406 99.0772C7.5026 98.9105 7.14323 98.6709 6.83594 98.3584C6.53385 98.0459 6.29427 97.6683 6.11719 97.2256C5.94531 96.7881 5.85938 96.3011 5.85938 95.7647C5.85938 95.2022 5.94792 94.7048 6.125 94.2725C6.30729 93.8402 6.58333 93.4782 6.95313 93.1866C7.32813 92.8949 7.79948 92.6735 8.36719 92.5225C8.9349 92.3715 9.60677 92.2959 10.3828 92.2959C10.9036 92.2959 11.4089 92.3298 11.8984 92.3975C12.388 92.4652 12.849 92.5772 13.2813 92.7334C13.7135 92.8897 14.1094 93.098 14.4688 93.3584C14.8281 93.6189 15.1354 93.9418 15.3906 94.3272C15.651 94.7178 15.8516 95.1761 15.9922 95.7022C16.138 96.2282 16.2109 96.8376 16.2109 97.5303V98.5381H15.0234V97.4444C15.0234 96.835 14.9505 96.3064 14.8047 95.8584C14.6589 95.4105 14.4531 95.0355 14.1875 94.7334C13.9219 94.4314 13.6016 94.1996 13.2266 94.0381C12.8516 93.8767 12.4323 93.7751 11.9688 93.7334L11.6484 93.7022C11.8411 94.0303 11.9948 94.4079 12.1094 94.835C12.2292 95.2673 12.2891 95.7334 12.2891 96.2334C12.2891 96.7491 12.2135 97.1996 12.0625 97.585C11.9115 97.9756 11.7005 98.2985 11.4297 98.5537C11.1641 98.8142 10.8438 99.0095 10.4688 99.1397C10.0938 99.2699 9.68229 99.335 9.23438 99.335ZM9.14844 97.9131C9.46094 97.9131 9.74219 97.8741 9.99219 97.7959C10.2474 97.723 10.4609 97.6058 10.6328 97.4444C10.8099 97.2829 10.9453 97.0772 11.0391 96.8272C11.138 96.5824 11.1875 96.2881 11.1875 95.9444C11.1875 95.7465 11.1693 95.5459 11.1328 95.3428C11.0964 95.1397 11.0443 94.9392 10.9766 94.7412C10.9141 94.5485 10.8411 94.3636 10.7578 94.1866C10.6745 94.0095 10.5859 93.848 10.4922 93.7022C9.82031 93.7022 9.25781 93.7491 8.80469 93.8428C8.35677 93.9366 7.9974 94.0746 7.72656 94.2569C7.45573 94.4444 7.26302 94.6735 7.14844 94.9444C7.03385 95.2152 6.97656 95.5277 6.97656 95.8819C6.97656 96.1787 7.02344 96.4496 7.11719 96.6944C7.21615 96.9444 7.35938 97.1579 7.54688 97.335C7.73438 97.5173 7.96094 97.6579 8.22656 97.7569C8.4974 97.861 8.80469 97.9131 9.14844 97.9131ZM9.1875 107.346C8.85417 107.299 8.57813 107.273 8.35938 107.268C8.14063 107.262 7.96875 107.275 7.84375 107.307C7.71875 107.343 7.63021 107.398 7.57813 107.471C7.53125 107.544 7.50781 107.635 7.50781 107.744C7.50781 107.89 7.58333 108.028 7.73438 108.158C7.89063 108.288 8.1276 108.403 8.44531 108.502C8.76823 108.606 9.17448 108.687 9.66406 108.744C10.1536 108.807 10.7344 108.838 11.4063 108.838C12.1563 108.838 12.8255 108.791 13.4141 108.697C14.0026 108.603 14.5026 108.455 14.9141 108.252C15.3255 108.049 15.638 107.783 15.8516 107.455C16.0703 107.132 16.1797 106.739 16.1797 106.275C16.1797 105.921 16.0885 105.577 15.9063 105.244C15.7292 104.916 15.4766 104.609 15.1484 104.322C14.8255 104.041 14.4349 103.783 13.9766 103.549C13.5234 103.32 13.0208 103.122 12.4688 102.955C11.9167 102.794 11.3229 102.666 10.6875 102.572C10.0521 102.484 9.39063 102.439 8.70313 102.439C7.02604 102.439 5.77604 102.692 4.95313 103.197C4.125 103.702 3.71094 104.413 3.71094 105.33C3.71094 105.794 3.76563 106.226 3.875 106.627C3.97917 107.028 4.13802 107.445 4.35156 107.877H3.34375C3.14583 107.45 2.9974 107.023 2.89844 106.596C2.79948 106.169 2.75 105.721 2.75 105.252C2.75 103.924 3.2474 102.939 4.24219 102.299C5.23698 101.663 6.71875 101.34 8.6875 101.33C9.47396 101.325 10.2266 101.377 10.9453 101.486C11.6693 101.596 12.3438 101.752 12.9688 101.955C13.5938 102.163 14.1615 102.413 14.6719 102.705C15.1875 103.002 15.625 103.335 15.9844 103.705C16.349 104.08 16.6302 104.486 16.8281 104.924C17.0313 105.361 17.1328 105.827 17.1328 106.322C17.1328 106.942 17.0052 107.478 16.75 107.932C16.5 108.39 16.1354 108.768 15.6563 109.064C15.1823 109.361 14.599 109.58 13.9063 109.721C13.2135 109.866 12.4245 109.939 11.5391 109.939C10.6432 109.934 9.875 109.874 9.23438 109.76C8.59896 109.65 8.07813 109.494 7.67188 109.291C7.26563 109.088 6.96615 108.84 6.77344 108.549C6.58594 108.262 6.49219 107.942 6.49219 107.588C6.49219 107.182 6.59635 106.879 6.80469 106.682C7.01302 106.484 7.29427 106.385 7.64844 106.385C7.2474 106.187 6.95313 105.973 6.76563 105.744C6.58333 105.515 6.49219 105.239 6.49219 104.916C6.49219 104.426 6.67448 104.059 7.03906 103.814C7.40885 103.57 7.98958 103.447 8.78125 103.447C9.06771 103.447 9.375 103.463 9.70313 103.494C10.0313 103.531 10.3594 103.588 10.6875 103.666C11.0208 103.749 11.3385 103.856 11.6406 103.986C11.9479 104.116 12.2161 104.275 12.4453 104.463C12.6797 104.656 12.8672 104.882 13.0078 105.143C13.1484 105.403 13.2188 105.7 13.2188 106.033C13.2188 106.231 13.1953 106.416 13.1484 106.588C13.1016 106.76 13.0547 106.885 13.0078 106.963L13.25 107.971L9.1875 107.346ZM11.9688 106.549C12.0313 106.502 12.0859 106.429 12.1328 106.33C12.1849 106.236 12.2109 106.116 12.2109 105.971C12.2109 105.814 12.1563 105.674 12.0469 105.549C11.9375 105.424 11.7917 105.312 11.6094 105.213C11.4271 105.119 11.2188 105.038 10.9844 104.971C10.7552 104.908 10.5182 104.853 10.2734 104.807C10.0286 104.765 9.78646 104.734 9.54688 104.713C9.3125 104.697 9.10156 104.689 8.91406 104.689C8.41406 104.689 8.05469 104.721 7.83594 104.783C7.61719 104.846 7.50781 104.965 7.50781 105.143C7.50781 105.205 7.52083 105.268 7.54688 105.33C7.57292 105.393 7.6224 105.458 7.69531 105.525C7.77344 105.598 7.88021 105.676 8.01563 105.76C8.15104 105.843 8.32813 105.934 8.54688 106.033L11.9688 106.549ZM12.7344 118.067C12.5521 118.213 12.3385 118.325 12.0938 118.403C11.8542 118.486 11.5938 118.528 11.3125 118.528C10.9063 118.528 10.5339 118.453 10.1953 118.302C9.86198 118.156 9.57552 117.947 9.33594 117.677C9.09635 117.406 8.90885 117.08 8.77344 116.7C8.64323 116.325 8.57813 115.911 8.57813 115.458C8.57813 115.13 8.61198 114.822 8.67969 114.536C8.7526 114.249 8.84115 114.023 8.94531 113.856C8.79948 113.757 8.66146 113.674 8.53125 113.606C8.40104 113.539 8.25521 113.505 8.09375 113.505C7.89583 113.505 7.73177 113.598 7.60156 113.786C7.47135 113.979 7.40104 114.231 7.39063 114.544L7.3125 116.606C7.30208 116.997 7.2526 117.356 7.16406 117.684C7.07552 118.018 6.94792 118.302 6.78125 118.536C6.61458 118.776 6.40885 118.96 6.16406 119.091C5.91927 119.226 5.63542 119.294 5.3125 119.294C4.96354 119.294 4.63281 119.218 4.32031 119.067C4.00781 118.916 3.73438 118.682 3.5 118.364C3.26042 118.052 3.07031 117.653 2.92969 117.169C2.78906 116.684 2.71875 116.109 2.71875 115.442C2.71875 114.807 2.77083 114.265 2.875 113.817C2.97396 113.374 3.11458 113.01 3.29688 112.723C3.47396 112.437 3.6875 112.229 3.9375 112.098C4.18229 111.968 4.45313 111.903 4.75 111.903C5.13021 111.903 5.46354 111.992 5.75 112.169C6.03646 112.346 6.3125 112.619 6.57813 112.989C6.64063 112.854 6.71875 112.736 6.8125 112.637C6.90625 112.539 7.00781 112.458 7.11719 112.395C7.23177 112.333 7.35156 112.286 7.47656 112.255C7.60156 112.223 7.72396 112.208 7.84375 112.208C8.18229 112.208 8.49219 112.286 8.77344 112.442C9.05469 112.604 9.32031 112.794 9.57031 113.012C9.6901 112.914 9.80729 112.825 9.92188 112.747C10.0365 112.674 10.1589 112.609 10.2891 112.552C10.4245 112.499 10.5677 112.458 10.7188 112.427C10.875 112.401 11.0521 112.387 11.25 112.387C11.6563 112.387 12.026 112.46 12.3594 112.606C12.6979 112.757 12.987 112.966 13.2266 113.231C13.4661 113.502 13.651 113.825 13.7813 114.2C13.9167 114.58 13.9844 114.999 13.9844 115.458C13.9844 115.651 13.9714 115.835 13.9453 116.012C13.9193 116.19 13.8854 116.346 13.8438 116.481V119.325H12.7344V118.067ZM4.86719 113.348C4.4974 113.348 4.22917 113.541 4.0625 113.927C3.89063 114.312 3.80469 114.848 3.80469 115.536C3.80469 115.968 3.84375 116.33 3.92188 116.622C4 116.919 4.10417 117.156 4.23438 117.333C4.35938 117.515 4.50521 117.645 4.67188 117.723C4.83333 117.802 5 117.841 5.17188 117.841C5.48958 117.841 5.72396 117.71 5.875 117.45C6.02604 117.19 6.11458 116.791 6.14063 116.255L6.21094 114.208C6.09635 114.036 5.98438 113.893 5.875 113.778C5.76563 113.669 5.65625 113.583 5.54688 113.52C5.43229 113.458 5.32031 113.414 5.21094 113.387C5.09635 113.361 4.98177 113.348 4.86719 113.348ZM11.2813 113.762C11.0313 113.762 10.8021 113.804 10.5938 113.887C10.3854 113.971 10.2083 114.088 10.0625 114.239C9.91667 114.39 9.80208 114.567 9.71875 114.77C9.64063 114.979 9.60156 115.208 9.60156 115.458C9.60156 115.729 9.64583 115.968 9.73438 116.177C9.82813 116.39 9.95313 116.567 10.1094 116.708C10.2656 116.854 10.4453 116.963 10.6484 117.036C10.8516 117.114 11.0625 117.153 11.2813 117.153C11.5313 117.153 11.7604 117.111 11.9688 117.028C12.1771 116.945 12.3542 116.828 12.5 116.677C12.6458 116.526 12.7578 116.346 12.8359 116.137C12.9193 115.934 12.9609 115.708 12.9609 115.458C12.9609 115.187 12.9141 114.945 12.8203 114.731C12.7266 114.523 12.6016 114.346 12.4453 114.2C12.2943 114.059 12.1172 113.95 11.9141 113.872C11.7109 113.799 11.5 113.762 11.2813 113.762ZM6 127.929H11.6328C11.8776 127.929 12.0781 127.919 12.2344 127.898C12.3906 127.882 12.513 127.854 12.6016 127.812C12.6953 127.776 12.7604 127.726 12.7969 127.664C12.8333 127.606 12.8516 127.534 12.8516 127.445C12.8516 127.341 12.8203 127.244 12.7578 127.156C12.6953 127.067 12.5938 126.971 12.4531 126.867C12.3125 126.768 12.125 126.656 11.8906 126.531C11.6615 126.411 11.3776 126.268 11.0391 126.101H6V124.859H11.4844C11.7708 124.859 12.0026 124.849 12.1797 124.828C12.3568 124.812 12.4948 124.784 12.5938 124.742C12.6927 124.705 12.7604 124.656 12.7969 124.593C12.8333 124.531 12.8516 124.455 12.8516 124.367C12.8516 124.273 12.8255 124.185 12.7734 124.101C12.7214 124.018 12.6276 123.924 12.4922 123.82C12.3568 123.721 12.1719 123.609 11.9375 123.484C11.7031 123.359 11.4036 123.211 11.0391 123.039H6L6 121.789H13.8438V122.828L12.3516 122.89C12.6484 123.026 12.901 123.156 13.1094 123.281C13.3177 123.411 13.4844 123.544 13.6094 123.679C13.7396 123.815 13.8333 123.958 13.8906 124.109C13.9531 124.265 13.9844 124.437 13.9844 124.625C13.9844 125.047 13.8464 125.367 13.5703 125.586C13.2943 125.804 12.8672 125.914 12.2891 125.914C12.5599 126.039 12.7995 126.161 13.0078 126.281C13.2214 126.401 13.3984 126.528 13.5391 126.664C13.6849 126.804 13.7943 126.958 13.8672 127.125C13.9453 127.291 13.9844 127.484 13.9844 127.703C13.9844 128.687 13.2266 129.179 11.7109 129.179H6V127.929ZM6 137.292L7.05469 137.26C6.63281 136.833 6.32813 136.398 6.14063 135.956C5.95313 135.518 5.85938 135.057 5.85938 134.573C5.85938 134.125 5.91667 133.742 6.03125 133.424C6.14583 133.107 6.30208 132.844 6.5 132.635C6.70313 132.432 6.9401 132.281 7.21094 132.182C7.48177 132.088 7.77604 132.042 8.09375 132.042C8.88021 132.042 9.49479 132.333 9.9375 132.917C10.3854 133.505 10.6094 134.372 10.6094 135.518V137.143H11.2969C11.7604 137.143 12.1302 136.995 12.4063 136.698C12.6875 136.401 12.8281 135.948 12.8281 135.338C12.8281 134.896 12.7786 134.458 12.6797 134.026C12.5807 133.599 12.4401 133.156 12.2578 132.698H13.4844C13.5469 132.87 13.6068 133.06 13.6641 133.268C13.7266 133.482 13.7813 133.706 13.8281 133.94C13.875 134.174 13.9115 134.419 13.9375 134.674C13.9688 134.93 13.9844 135.187 13.9844 135.448C13.9844 135.922 13.9323 136.349 13.8281 136.729C13.724 137.109 13.5651 137.43 13.3516 137.69C13.138 137.956 12.8698 138.159 12.5469 138.299C12.224 138.44 11.8438 138.51 11.4063 138.51H6V137.292ZM9.57031 137.143V135.417C9.57031 135.078 9.53646 134.786 9.46875 134.542C9.40104 134.297 9.30469 134.096 9.17969 133.94C9.05469 133.784 8.90365 133.667 8.72656 133.588C8.55469 133.516 8.35938 133.479 8.14063 133.479C7.98958 133.479 7.84375 133.503 7.70313 133.549C7.56771 133.596 7.44531 133.672 7.33594 133.776C7.23177 133.88 7.14844 134.016 7.08594 134.182C7.02344 134.349 6.99219 134.552 6.99219 134.792C6.99219 135.104 7.08594 135.461 7.27344 135.862C7.46615 136.268 7.76823 136.695 8.17969 137.143H9.57031ZM12.7188 144.841V142.521H13.8438V146.216H7.13281V148.552H6V142.263H7.13281V144.841H12.7188ZM17.1328 145.318C17.1328 145.469 17.1042 145.609 17.0469 145.74C16.9948 145.87 16.9193 145.982 16.8203 146.076C16.7214 146.175 16.6068 146.25 16.4766 146.302C16.3516 146.359 16.2135 146.388 16.0625 146.388C15.9167 146.388 15.7786 146.359 15.6484 146.302C15.5182 146.25 15.4036 146.175 15.3047 146.076C15.2057 145.982 15.1276 145.87 15.0703 145.74C15.0182 145.609 14.9922 145.469 14.9922 145.318C14.9922 145.167 15.0182 145.026 15.0703 144.896C15.1276 144.766 15.2057 144.651 15.3047 144.552C15.4036 144.458 15.5182 144.383 15.6484 144.326C15.7786 144.274 15.9167 144.247 16.0625 144.247C16.2135 144.247 16.3516 144.274 16.4766 144.326C16.6068 144.383 16.7214 144.458 16.8203 144.552C16.9193 144.651 16.9948 144.766 17.0469 144.896C17.1042 145.026 17.1328 145.167 17.1328 145.318ZM15.9219 154.758V152.438H17.0391V156.133H7.13281L7.13281 158.469H6L6 152.18H7.13281V154.758H15.9219ZM8.46094 165.089C8.46094 165.266 8.42708 165.433 8.35938 165.589C8.29167 165.751 8.19792 165.889 8.07813 166.003C7.95833 166.123 7.81771 166.217 7.65625 166.284C7.5 166.352 7.33073 166.386 7.14844 166.386C6.97135 166.386 6.80469 166.352 6.64844 166.284C6.49219 166.217 6.35417 166.123 6.23438 166.003C6.11979 165.889 6.02865 165.751 5.96094 165.589C5.89323 165.433 5.85938 165.266 5.85938 165.089C5.85938 164.907 5.89323 164.738 5.96094 164.581C6.02865 164.425 6.11979 164.287 6.23438 164.167C6.35417 164.053 6.49219 163.961 6.64844 163.894C6.80469 163.826 6.97135 163.792 7.14844 163.792C7.33073 163.792 7.5 163.826 7.65625 163.894C7.81771 163.961 7.95833 164.053 8.07813 164.167C8.19792 164.287 8.29167 164.425 8.35938 164.581C8.42708 164.738 8.46094 164.907 8.46094 165.089ZM6.28906 178.014C6.15365 177.66 6.05469 177.295 5.99219 176.92C5.92448 176.55 5.89063 176.167 5.89063 175.772C5.89063 174.532 6.22656 173.576 6.89844 172.904C7.57031 172.238 8.55208 171.904 9.84375 171.904C10.4635 171.904 11.026 172.001 11.5313 172.193C12.0365 172.386 12.4688 172.657 12.8281 173.006C13.1875 173.355 13.4635 173.772 13.6563 174.256C13.8542 174.74 13.9531 175.274 13.9531 175.857C13.9531 176.264 13.9245 176.644 13.8672 176.998C13.8099 177.352 13.7161 177.691 13.5859 178.014H12.2891C12.4661 177.675 12.5938 177.329 12.6719 176.975C12.7552 176.626 12.7969 176.264 12.7969 175.889C12.7969 175.54 12.7292 175.209 12.5938 174.897C12.4635 174.589 12.2734 174.318 12.0234 174.084C11.7734 173.85 11.4688 173.665 11.1094 173.529C10.75 173.394 10.3438 173.326 9.89063 173.326C8.94271 173.326 8.23177 173.555 7.75781 174.014C7.28906 174.477 7.05469 175.118 7.05469 175.936C7.05469 176.305 7.09635 176.662 7.17969 177.006C7.26302 177.355 7.38802 177.691 7.55469 178.014H6.28906ZM9.98438 188.665C9.375 188.665 8.8151 188.579 8.30469 188.407C7.79948 188.235 7.36458 187.988 7 187.665C6.64063 187.342 6.35938 186.949 6.15625 186.485C5.95833 186.022 5.85938 185.496 5.85938 184.907C5.85938 184.345 5.94531 183.839 6.11719 183.392C6.29427 182.949 6.55208 182.571 6.89063 182.259C7.22917 181.951 7.64844 181.714 8.14844 181.548C8.64844 181.386 9.22396 181.306 9.875 181.306C10.4844 181.306 11.0391 181.392 11.5391 181.563C12.0443 181.735 12.4766 181.983 12.8359 182.306C13.2005 182.629 13.4818 183.022 13.6797 183.485C13.8828 183.949 13.9844 184.475 13.9844 185.063C13.9844 185.626 13.8958 186.129 13.7188 186.571C13.5469 187.019 13.2917 187.397 12.9531 187.704C12.6198 188.017 12.2031 188.254 11.7031 188.415C11.2031 188.582 10.6302 188.665 9.98438 188.665ZM9.92188 187.274C10.4063 187.274 10.8281 187.22 11.1875 187.11C11.5521 187.006 11.8542 186.855 12.0938 186.657C12.3385 186.459 12.5208 186.217 12.6406 185.931C12.7656 185.649 12.8281 185.334 12.8281 184.985C12.8281 184.579 12.7474 184.23 12.5859 183.938C12.4297 183.652 12.2188 183.415 11.9531 183.227C11.6875 183.045 11.3776 182.91 11.0234 182.821C10.6745 182.738 10.3073 182.696 9.92188 182.696C9.4375 182.696 9.01302 182.748 8.64844 182.852C8.28385 182.962 7.97917 183.116 7.73438 183.313C7.49479 183.511 7.3125 183.751 7.1875 184.032C7.06771 184.313 7.00781 184.631 7.00781 184.985C7.00781 185.392 7.08594 185.738 7.24219 186.024C7.40365 186.316 7.61719 186.553 7.88281 186.735C8.14844 186.923 8.45573 187.058 8.80469 187.142C9.15885 187.23 9.53125 187.274 9.92188 187.274ZM6 197.348H11.6328C11.8776 197.348 12.0781 197.337 12.2344 197.316C12.3906 197.301 12.513 197.272 12.6016 197.23C12.6953 197.194 12.7604 197.144 12.7969 197.082C12.8333 197.025 12.8516 196.952 12.8516 196.863C12.8516 196.759 12.8203 196.663 12.7578 196.574C12.6953 196.486 12.5938 196.389 12.4531 196.285C12.3125 196.186 12.125 196.074 11.8906 195.949C11.6615 195.829 11.3776 195.686 11.0391 195.519H6V194.277H11.4844C11.7708 194.277 12.0026 194.267 12.1797 194.246C12.3568 194.23 12.4948 194.202 12.5938 194.16C12.6927 194.124 12.7604 194.074 12.7969 194.012C12.8333 193.949 12.8516 193.874 12.8516 193.785C12.8516 193.691 12.8255 193.603 12.7734 193.519C12.7214 193.436 12.6276 193.342 12.4922 193.238C12.3568 193.139 12.1719 193.027 11.9375 192.902C11.7031 192.777 11.4036 192.629 11.0391 192.457H6V191.207H13.8438V192.246L12.3516 192.308C12.6484 192.444 12.901 192.574 13.1094 192.699C13.3177 192.829 13.4844 192.962 13.6094 193.098C13.7396 193.233 13.8333 193.376 13.8906 193.527C13.9531 193.683 13.9844 193.855 13.9844 194.043C13.9844 194.465 13.8464 194.785 13.5703 195.004C13.2943 195.223 12.8672 195.332 12.2891 195.332C12.5599 195.457 12.7995 195.579 13.0078 195.699C13.2214 195.819 13.3984 195.946 13.5391 196.082C13.6849 196.223 13.7943 196.376 13.8672 196.543C13.9453 196.709 13.9844 196.902 13.9844 197.121C13.9844 198.105 13.2266 198.598 11.7109 198.598H6V197.348Z" fill="#EEE6CE"/>
</svg>
