<svg width="31" height="29" viewBox="0 0 31 29" fill="none" xmlns="http://www.w3.org/2000/svg">
<path d="M20.8947 9.52632C23.1561 9.52632 25.3248 10.4246 26.9238 12.0236C28.5227 13.6226 29.4211 15.7913 29.4211 18.0526V28H23.7368V18.0526C23.7368 17.2989 23.4374 16.576 22.9044 16.043C22.3714 15.51 21.6485 15.2105 20.8947 15.2105C20.141 15.2105 19.4181 15.51 18.8851 16.043C18.3521 16.576 18.0526 17.2989 18.0526 18.0526V28H12.3684V18.0526C12.3684 15.7913 13.2667 13.6226 14.8657 12.0236C16.4647 10.4246 18.6334 9.52632 20.8947 9.52632Z" stroke="#EEE6CE" stroke-width="2" stroke-linecap="round" stroke-linejoin="round"/>
<path d="M6.68421 10.9474C4.46439 10.9474 3.21982 10.9474 1 10.9474V28H6.68421V10.9474Z" stroke="#EEE6CE" stroke-width="2" stroke-linecap="round" stroke-linejoin="round"/>
<path d="M3.84211 6.68421C5.41176 6.68421 6.68421 5.41176 6.68421 3.84211C6.68421 2.27245 5.41176 1 3.84211 1C2.27245 1 1 2.27245 1 3.84211C1 5.41176 2.27245 6.68421 3.84211 6.68421Z" stroke="#EEE6CE" stroke-width="2" stroke-linecap="round" stroke-linejoin="round"/>
</svg>
