<svg width="16" height="236" viewBox="0 0 16 236" fill="none" xmlns="http://www.w3.org/2000/svg">
<path d="M4.28906 6.64374C4.15365 6.28957 4.05469 5.92499 3.99219 5.54999C3.92448 5.1802 3.89062 4.79738 3.89062 4.40155C3.89062 3.16197 4.22656 2.20624 4.89844 1.53436C5.57031 0.867696 6.55208 0.534363 7.84375 0.534363C8.46354 0.534363 9.02604 0.630717 9.53125 0.823425C10.0365 1.01613 10.4688 1.28697 10.8281 1.63593C11.1875 1.98488 11.4635 2.40155 11.6562 2.88593C11.8542 3.3703 11.9531 3.90415 11.9531 4.48749C11.9531 4.89374 11.9245 5.27395 11.8672 5.62811C11.8099 5.98228 11.7161 6.32082 11.5859 6.64374H10.2891C10.4661 6.3052 10.5938 5.95884 10.6719 5.60468C10.7552 5.25572 10.7969 4.89374 10.7969 4.51874C10.7969 4.16978 10.7292 3.83905 10.5938 3.52655C10.4635 3.21926 10.2734 2.94843 10.0234 2.71405C9.77344 2.47968 9.46875 2.29478 9.10938 2.15936C8.75 2.02395 8.34375 1.95624 7.89062 1.95624C6.94271 1.95624 6.23177 2.1854 5.75781 2.64374C5.28906 3.10728 5.05469 3.7479 5.05469 4.56561C5.05469 4.9354 5.09635 5.29218 5.17969 5.63593C5.26302 5.98488 5.38802 6.32082 5.55469 6.64374H4.28906ZM7.98438 17.295C7.375 17.295 6.8151 17.2091 6.30469 17.0372C5.79948 16.8653 5.36458 16.6179 5 16.295C4.64063 15.9721 4.35938 15.5788 4.15625 15.1153C3.95833 14.6518 3.85938 14.1257 3.85938 13.5372C3.85938 12.9747 3.94531 12.4695 4.11719 12.0216C4.29427 11.5788 4.55208 11.2012 4.89063 10.8887C5.22917 10.5814 5.64844 10.3445 6.14844 10.1778C6.64844 10.0163 7.22396 9.93561 7.875 9.93561C8.48438 9.93561 9.03906 10.0216 9.53906 10.1934C10.0443 10.3653 10.4766 10.6127 10.8359 10.9356C11.2005 11.2585 11.4818 11.6518 11.6797 12.1153C11.8828 12.5788 11.9844 13.1049 11.9844 13.6934C11.9844 14.2559 11.8958 14.7585 11.7188 15.2012C11.5469 15.6492 11.2917 16.0268 10.9531 16.3341C10.6198 16.6466 10.2031 16.8835 9.70313 17.045C9.20313 17.2117 8.63021 17.295 7.98438 17.295ZM7.92188 15.9044C8.40625 15.9044 8.82813 15.8497 9.1875 15.7403C9.55208 15.6361 9.85417 15.4851 10.0938 15.2872C10.3385 15.0893 10.5208 14.8471 10.6406 14.5606C10.7656 14.2794 10.8281 13.9643 10.8281 13.6153C10.8281 13.2091 10.7474 12.8601 10.5859 12.5684C10.4297 12.282 10.2188 12.045 9.95312 11.8575C9.6875 11.6752 9.3776 11.5398 9.02344 11.4512C8.67448 11.3679 8.30729 11.3262 7.92188 11.3262C7.4375 11.3262 7.01302 11.3783 6.64844 11.4825C6.28385 11.5919 5.97917 11.7455 5.73438 11.9434C5.49479 12.1413 5.3125 12.3809 5.1875 12.6622C5.06771 12.9434 5.00781 13.2611 5.00781 13.6153C5.00781 14.0216 5.08594 14.3679 5.24219 14.6544C5.40365 14.946 5.61719 15.183 5.88281 15.3653C6.14844 15.5528 6.45573 15.6882 6.80469 15.7716C7.15885 15.8601 7.53125 15.9044 7.92188 15.9044ZM4 25.9775H9.63281C9.8776 25.9775 10.0781 25.9671 10.2344 25.9462C10.3906 25.9306 10.513 25.902 10.6016 25.8603C10.6953 25.8238 10.7604 25.7744 10.7969 25.7119C10.8333 25.6546 10.8516 25.5817 10.8516 25.4931C10.8516 25.3889 10.8203 25.2926 10.7578 25.2041C10.6953 25.1155 10.5938 25.0192 10.4531 24.915C10.3125 24.816 10.125 24.7041 9.89063 24.5791C9.66146 24.4593 9.3776 24.316 9.03906 24.1494H4V22.9072H9.48438C9.77083 22.9072 10.0026 22.8968 10.1797 22.8759C10.3568 22.8603 10.4948 22.8317 10.5938 22.79C10.6927 22.7535 10.7604 22.7041 10.7969 22.6416C10.8333 22.5791 10.8516 22.5035 10.8516 22.415C10.8516 22.3212 10.8255 22.2327 10.7734 22.1494C10.7214 22.066 10.6276 21.9723 10.4922 21.8681C10.3568 21.7692 10.1719 21.6572 9.9375 21.5322C9.70313 21.4072 9.40365 21.2587 9.03906 21.0869H4V19.8369H11.8438V20.8759L10.3516 20.9384C10.6484 21.0738 10.901 21.2041 11.1094 21.3291C11.3177 21.4593 11.4844 21.5921 11.6094 21.7275C11.7396 21.8629 11.8333 22.0061 11.8906 22.1572C11.9531 22.3134 11.9844 22.4853 11.9844 22.6728C11.9844 23.0947 11.8464 23.415 11.5703 23.6337C11.2943 23.8525 10.8672 23.9619 10.2891 23.9619C10.5599 24.0869 10.7995 24.2093 11.0078 24.3291C11.2214 24.4488 11.3984 24.5764 11.5391 24.7119C11.6849 24.8525 11.7943 25.0061 11.8672 25.1728C11.9453 25.3395 11.9844 25.5322 11.9844 25.7509C11.9844 26.7353 11.2266 27.2275 9.71094 27.2275H4V25.9775ZM4 35.3397L5.05469 35.3084C4.63281 34.8813 4.32813 34.4464 4.14063 34.0037C3.95313 33.5662 3.85938 33.1053 3.85938 32.6209C3.85938 32.173 3.91667 31.7902 4.03125 31.4725C4.14583 31.1548 4.30208 30.8918 4.5 30.6834C4.70313 30.4803 4.9401 30.3293 5.21094 30.2303C5.48177 30.1366 5.77604 30.0897 6.09375 30.0897C6.88021 30.0897 7.49479 30.3813 7.9375 30.9647C8.38542 31.5532 8.60938 32.4204 8.60938 33.5662V35.1912H9.29688C9.76042 35.1912 10.1302 35.0428 10.4063 34.7459C10.6875 34.4491 10.8281 33.9959 10.8281 33.3866C10.8281 32.9438 10.7786 32.5063 10.6797 32.0741C10.5807 31.647 10.4401 31.2043 10.2578 30.7459H11.4844C11.5469 30.9178 11.6068 31.1079 11.6641 31.3162C11.7266 31.5298 11.7813 31.7537 11.8281 31.9881C11.875 32.2225 11.9115 32.4673 11.9375 32.7225C11.9688 32.9777 11.9844 33.2355 11.9844 33.4959C11.9844 33.9699 11.9323 34.397 11.8281 34.7772C11.724 35.1574 11.5651 35.4777 11.3516 35.7381C11.138 36.0037 10.8698 36.2069 10.5469 36.3475C10.224 36.4881 9.84375 36.5584 9.40625 36.5584H4V35.3397ZM7.57031 35.1912V33.4647C7.57031 33.1261 7.53646 32.8345 7.46875 32.5897C7.40104 32.3449 7.30469 32.1444 7.17969 31.9881C7.05469 31.8319 6.90365 31.7147 6.72656 31.6366C6.55469 31.5636 6.35938 31.5272 6.14063 31.5272C5.98958 31.5272 5.84375 31.5506 5.70313 31.5975C5.56771 31.6444 5.44531 31.7199 5.33594 31.8241C5.23177 31.9282 5.14844 32.0636 5.08594 32.2303C5.02344 32.397 4.99219 32.6001 4.99219 32.8397C4.99219 33.1522 5.08594 33.5089 5.27344 33.91C5.46615 34.3162 5.76823 34.7433 6.17969 35.1912H7.57031ZM11.8438 47.194L4.82813 44.5222C4.11458 44.2461 3.5 43.9597 2.98438 43.6628C2.46875 43.3711 2.04688 43.0508 1.71875 42.7019C1.38542 42.3529 1.14063 41.9701 0.984375 41.5534C0.828125 41.1368 0.75 40.6706 0.75 40.155C0.75 40.0196 0.752604 39.8972 0.757813 39.7878C0.763021 39.6784 0.770833 39.5586 0.78125 39.4284H2.01563C2 39.543 1.98698 39.668 1.97656 39.8034C1.96094 39.9388 1.95313 40.0821 1.95313 40.2331C1.95313 40.4831 1.98958 40.7149 2.0625 40.9284C2.13542 41.1472 2.25521 41.3529 2.42188 41.5456C2.58333 41.7383 2.79427 41.9232 3.05469 42.1003C3.3151 42.2774 3.63021 42.4493 4 42.6159L11.8438 39.4831V41.03L6.65625 43.0144L5.4375 43.4128L6.6875 43.8659L11.8438 45.7019V47.194ZM4 55.1734L5.05469 55.1422C4.63281 54.7151 4.32813 54.2802 4.14063 53.8375C3.95313 53.4 3.85938 52.939 3.85938 52.4547C3.85938 52.0068 3.91667 51.6239 4.03125 51.3062C4.14583 50.9885 4.30208 50.7255 4.5 50.5172C4.70313 50.314 4.9401 50.163 5.21094 50.064C5.48177 49.9703 5.77604 49.9234 6.09375 49.9234C6.88021 49.9234 7.49479 50.2151 7.9375 50.7984C8.38542 51.387 8.60938 52.2542 8.60938 53.4V55.025H9.29688C9.76042 55.025 10.1302 54.8765 10.4063 54.5797C10.6875 54.2828 10.8281 53.8297 10.8281 53.2203C10.8281 52.7776 10.7786 52.3401 10.6797 51.9078C10.5807 51.4807 10.4401 51.038 10.2578 50.5797H11.4844C11.5469 50.7515 11.6068 50.9417 11.6641 51.15C11.7266 51.3635 11.7813 51.5875 11.8281 51.8219C11.875 52.0562 11.9115 52.301 11.9375 52.5562C11.9688 52.8114 11.9844 53.0693 11.9844 53.3297C11.9844 53.8036 11.9323 54.2307 11.8281 54.6109C11.724 54.9911 11.5651 55.3114 11.3516 55.5719C11.138 55.8375 10.8698 56.0406 10.5469 56.1812C10.224 56.3219 9.84375 56.3922 9.40625 56.3922H4V55.1734ZM7.57031 55.025V53.2984C7.57031 52.9599 7.53646 52.6682 7.46875 52.4234C7.40104 52.1786 7.30469 51.9781 7.17969 51.8219C7.05469 51.6656 6.90365 51.5484 6.72656 51.4703C6.55469 51.3974 6.35938 51.3609 6.14063 51.3609C5.98958 51.3609 5.84375 51.3844 5.70313 51.4312C5.56771 51.4781 5.44531 51.5536 5.33594 51.6578C5.23177 51.762 5.14844 51.8974 5.08594 52.064C5.02344 52.2307 4.99219 52.4338 4.99219 52.6734C4.99219 52.9859 5.08594 53.3427 5.27344 53.7437C5.46615 54.15 5.76823 54.5771 6.17969 55.025H7.57031ZM11.8438 60.0512V61.2622L10.5781 61.3169C10.849 61.546 11.0729 61.7674 11.25 61.9809C11.4323 62.1945 11.5781 62.4028 11.6875 62.6059C11.7969 62.8143 11.8724 63.0252 11.9141 63.2387C11.9609 63.4523 11.9844 63.6736 11.9844 63.9028C11.9844 64.7101 11.7448 65.3195 11.2656 65.7309C10.7917 66.1476 10.0755 66.3559 9.11719 66.3559H4V64.9966H9.00781C9.6224 64.9966 10.0755 64.882 10.3672 64.6528C10.6641 64.4236 10.8125 64.0825 10.8125 63.6294C10.8125 63.4627 10.7865 63.2986 10.7344 63.1372C10.6875 62.9809 10.6016 62.8169 10.4766 62.645C10.3568 62.4731 10.1927 62.2856 9.98438 62.0825C9.77604 61.8846 9.51563 61.6606 9.20313 61.4106H4V60.0512H11.8438ZM6.46094 73.054C6.46094 73.2311 6.42708 73.3978 6.35938 73.554C6.29167 73.7155 6.19792 73.8535 6.07813 73.9681C5.95833 74.0879 5.81771 74.1817 5.65625 74.2494C5.5 74.3171 5.33073 74.3509 5.14844 74.3509C4.97135 74.3509 4.80469 74.3171 4.64844 74.2494C4.49219 74.1817 4.35417 74.0879 4.23438 73.9681C4.11979 73.8535 4.02865 73.7155 3.96094 73.554C3.89323 73.3978 3.85938 73.2311 3.85938 73.054C3.85938 72.8718 3.89323 72.7025 3.96094 72.5462C4.02865 72.39 4.11979 72.252 4.23438 72.1322C4.35417 72.0176 4.49219 71.9264 4.64844 71.8587C4.80469 71.791 4.97135 71.7572 5.14844 71.7572C5.33073 71.7572 5.5 71.791 5.65625 71.8587C5.81771 71.9264 5.95833 72.0176 6.07813 72.1322C6.19792 72.252 6.29167 72.39 6.35938 72.5462C6.42708 72.7025 6.46094 72.8718 6.46094 73.054ZM11.8438 80.2053V81.4475L10.3984 81.4865C10.9557 81.9501 11.3594 82.4058 11.6094 82.8537C11.8594 83.3069 11.9844 83.7626 11.9844 84.2209C11.9844 85.0334 11.7214 85.648 11.1953 86.0647C10.6693 86.4865 9.88802 86.6819 8.85156 86.6506V85.2756C9.53906 85.2912 10.0365 85.1897 10.3438 84.9709C10.6563 84.7574 10.8125 84.4423 10.8125 84.0256C10.8125 83.8433 10.7786 83.6584 10.7109 83.4709C10.6484 83.2886 10.5443 83.0985 10.3984 82.9006C10.2578 82.7079 10.0755 82.5022 9.85156 82.2834C9.6276 82.0647 9.35677 81.8303 9.03906 81.5803H4V80.2053H11.8438ZM7.98438 96.63C7.375 96.63 6.8151 96.5441 6.30469 96.3722C5.79948 96.2003 5.36458 95.9529 5 95.63C4.64063 95.3071 4.35938 94.9138 4.15625 94.4503C3.95833 93.9868 3.85938 93.4607 3.85938 92.8722C3.85938 92.3097 3.94531 91.8045 4.11719 91.3566C4.29427 90.9138 4.55208 90.5362 4.89063 90.2237C5.22917 89.9164 5.64844 89.6795 6.14844 89.5128C6.64844 89.3513 7.22396 89.2706 7.875 89.2706C8.48438 89.2706 9.03906 89.3566 9.53906 89.5284C10.0443 89.7003 10.4766 89.9477 10.8359 90.2706C11.2005 90.5935 11.4818 90.9868 11.6797 91.4503C11.8828 91.9138 11.9844 92.4399 11.9844 93.0284C11.9844 93.5909 11.8958 94.0935 11.7188 94.5362C11.5469 94.9842 11.2917 95.3618 10.9531 95.6691C10.6198 95.9816 10.2031 96.2185 9.70313 96.38C9.20313 96.5467 8.63021 96.63 7.98438 96.63ZM7.92188 95.2394C8.40625 95.2394 8.82813 95.1847 9.1875 95.0753C9.55208 94.9711 9.85417 94.8201 10.0938 94.6222C10.3385 94.4243 10.5208 94.1821 10.6406 93.8956C10.7656 93.6144 10.8281 93.2993 10.8281 92.9503C10.8281 92.5441 10.7474 92.1951 10.5859 91.9034C10.4297 91.617 10.2188 91.38 9.95313 91.1925C9.6875 91.0102 9.3776 90.8748 9.02344 90.7862C8.67448 90.7029 8.30729 90.6612 7.92188 90.6612C7.4375 90.6612 7.01302 90.7133 6.64844 90.8175C6.28385 90.9269 5.97917 91.0805 5.73438 91.2784C5.49479 91.4763 5.3125 91.7159 5.1875 91.9972C5.06771 92.2784 5.00781 92.5961 5.00781 92.9503C5.00781 93.3566 5.08594 93.7029 5.24219 93.9894C5.40365 94.281 5.61719 94.518 5.88281 94.7003C6.14844 94.8878 6.45573 95.0232 6.80469 95.1066C7.15885 95.1951 7.53125 95.2394 7.92188 95.2394ZM11.8438 99.7187V100.93L10.5781 100.984C10.849 101.214 11.0729 101.435 11.25 101.648C11.4323 101.862 11.5781 102.07 11.6875 102.273C11.7969 102.482 11.8724 102.693 11.9141 102.906C11.9609 103.12 11.9844 103.341 11.9844 103.57C11.9844 104.378 11.7448 104.987 11.2656 105.398C10.7917 105.815 10.0755 106.023 9.11719 106.023H4V104.664H9.00781C9.6224 104.664 10.0755 104.549 10.3672 104.32C10.6641 104.091 10.8125 103.75 10.8125 103.297C10.8125 103.13 10.7865 102.966 10.7344 102.805C10.6875 102.648 10.6016 102.484 10.4766 102.312C10.3568 102.141 10.1927 101.953 9.98438 101.75C9.77604 101.552 9.51563 101.328 9.20313 101.078H4V99.7187H11.8438ZM4 114.675L5.05469 114.643C4.63281 114.216 4.32813 113.781 4.14063 113.339C3.95313 112.901 3.85938 112.44 3.85938 111.956C3.85938 111.508 3.91667 111.125 4.03125 110.807C4.14583 110.49 4.30208 110.227 4.5 110.018C4.70313 109.815 4.9401 109.664 5.21094 109.565C5.48177 109.472 5.77604 109.425 6.09375 109.425C6.88021 109.425 7.49479 109.716 7.9375 110.3C8.38542 110.888 8.60938 111.755 8.60938 112.901L8.60938 114.526H9.29688C9.76042 114.526 10.1302 114.378 10.4063 114.081C10.6875 113.784 10.8281 113.331 10.8281 112.722C10.8281 112.279 10.7786 111.841 10.6797 111.409C10.5807 110.982 10.4401 110.539 10.2578 110.081H11.4844C11.5469 110.253 11.6068 110.443 11.6641 110.651C11.7266 110.865 11.7813 111.089 11.8281 111.323C11.875 111.557 11.9115 111.802 11.9375 112.057C11.9688 112.313 11.9844 112.571 11.9844 112.831C11.9844 113.305 11.9323 113.732 11.8281 114.112C11.724 114.492 11.5651 114.813 11.3516 115.073C11.138 115.339 10.8698 115.542 10.5469 115.682C10.224 115.823 9.84375 115.893 9.40625 115.893H4V114.675ZM7.57031 114.526L7.57031 112.8C7.57031 112.461 7.53646 112.169 7.46875 111.925C7.40104 111.68 7.30469 111.479 7.17969 111.323C7.05469 111.167 6.90365 111.05 6.72656 110.972C6.55469 110.899 6.35938 110.862 6.14063 110.862C5.98958 110.862 5.84375 110.886 5.70313 110.932C5.56771 110.979 5.44531 111.055 5.33594 111.159C5.23177 111.263 5.14844 111.399 5.08594 111.565C5.02344 111.732 4.99219 111.935 4.99219 112.175C4.99219 112.487 5.08594 112.844 5.27344 113.245C5.46615 113.651 5.76823 114.078 6.17969 114.526H7.57031ZM13.9219 122.224V119.904H15.0391V123.599H5.13281V125.935H4V119.646H5.13281V122.224H13.9219ZM7.75781 129.071C8.42448 129.071 9.01563 129.162 9.53125 129.344C10.0521 129.527 10.4896 129.784 10.8438 130.118C11.2031 130.456 11.474 130.86 11.6563 131.329C11.8438 131.803 11.9375 132.329 11.9375 132.907C11.9375 133.157 11.9219 133.402 11.8906 133.641C11.8594 133.886 11.8099 134.126 11.7422 134.36H15.0391L15.0391 135.727H4V134.508L5.48438 134.462C4.93229 134.081 4.52344 133.67 4.25781 133.227C3.99219 132.784 3.85938 132.305 3.85938 131.79C3.85938 131.342 3.95313 130.946 4.14063 130.602C4.32813 130.264 4.59115 129.98 4.92969 129.751C5.27344 129.527 5.6849 129.357 6.16406 129.243C6.64323 129.128 7.17448 129.071 7.75781 129.071ZM7.84375 130.462C6.89583 130.462 6.1875 130.6 5.71875 130.876C5.25521 131.157 5.02344 131.553 5.02344 132.063C5.02344 132.407 5.17708 132.769 5.48438 133.149C5.79167 133.534 6.2474 133.938 6.85156 134.36H10.4922C10.5964 134.136 10.6745 133.889 10.7266 133.618C10.7839 133.347 10.8125 133.079 10.8125 132.813C10.8125 132.074 10.5729 131.495 10.0938 131.079C9.61458 130.667 8.86458 130.462 7.84375 130.462ZM7.1875 144.23C6.85417 144.183 6.57813 144.157 6.35938 144.152C6.14063 144.147 5.96875 144.16 5.84375 144.191C5.71875 144.227 5.63021 144.282 5.57813 144.355C5.53125 144.428 5.50781 144.519 5.50781 144.628C5.50781 144.774 5.58333 144.912 5.73438 145.042C5.89063 145.173 6.1276 145.287 6.44531 145.386C6.76823 145.49 7.17448 145.571 7.66406 145.628C8.15365 145.691 8.73438 145.722 9.40625 145.722C10.1563 145.722 10.8255 145.675 11.4141 145.582C12.0026 145.488 12.5026 145.339 12.9141 145.136C13.3255 144.933 13.638 144.667 13.8516 144.339C14.0703 144.016 14.1797 143.623 14.1797 143.16C14.1797 142.806 14.0885 142.462 13.9063 142.128C13.7292 141.8 13.4766 141.493 13.1484 141.207C12.8255 140.925 12.4349 140.667 11.9766 140.433C11.5234 140.204 11.0208 140.006 10.4688 139.839C9.91667 139.678 9.32292 139.55 8.6875 139.457C8.05208 139.368 7.39063 139.324 6.70313 139.324C5.02604 139.324 3.77604 139.576 2.95313 140.082C2.125 140.587 1.71094 141.298 1.71094 142.214C1.71094 142.678 1.76563 143.11 1.875 143.511C1.97917 143.912 2.13802 144.329 2.35156 144.761H1.34375C1.14583 144.334 0.997396 143.907 0.898438 143.48C0.799479 143.053 0.75 142.605 0.75 142.136C0.75 140.808 1.2474 139.824 2.24219 139.183C3.23698 138.548 4.71875 138.225 6.6875 138.214C7.47396 138.209 8.22656 138.261 8.94531 138.371C9.66927 138.48 10.3438 138.636 10.9688 138.839C11.5938 139.048 12.1615 139.298 12.6719 139.589C13.1875 139.886 13.625 140.22 13.9844 140.589C14.349 140.964 14.6302 141.371 14.8281 141.808C15.0313 142.246 15.1328 142.712 15.1328 143.207C15.1328 143.826 15.0052 144.363 14.75 144.816C14.5 145.274 14.1354 145.652 13.6563 145.949C13.1823 146.246 12.599 146.464 11.9063 146.605C11.2135 146.751 10.4245 146.824 9.53906 146.824C8.64323 146.819 7.875 146.759 7.23438 146.644C6.59896 146.535 6.07813 146.378 5.67188 146.175C5.26563 145.972 4.96615 145.725 4.77344 145.433C4.58594 145.147 4.49219 144.826 4.49219 144.472C4.49219 144.066 4.59635 143.764 4.80469 143.566C5.01302 143.368 5.29427 143.269 5.64844 143.269C5.2474 143.071 4.95313 142.858 4.76563 142.628C4.58333 142.399 4.49219 142.123 4.49219 141.8C4.49219 141.311 4.67448 140.944 5.03906 140.699C5.40885 140.454 5.98958 140.332 6.78125 140.332C7.06771 140.332 7.375 140.347 7.70313 140.378C8.03125 140.415 8.35938 140.472 8.6875 140.55C9.02083 140.634 9.33854 140.74 9.64063 140.871C9.94792 141.001 10.2161 141.16 10.4453 141.347C10.6797 141.54 10.8672 141.766 11.0078 142.027C11.1484 142.287 11.2188 142.584 11.2188 142.917C11.2188 143.115 11.1953 143.3 11.1484 143.472C11.1016 143.644 11.0547 143.769 11.0078 143.847L11.25 144.855L7.1875 144.23ZM9.96875 143.433C10.0313 143.386 10.0859 143.313 10.1328 143.214C10.1849 143.121 10.2109 143.001 10.2109 142.855C10.2109 142.699 10.1563 142.558 10.0469 142.433C9.9375 142.308 9.79167 142.196 9.60938 142.097C9.42708 142.003 9.21875 141.923 8.98438 141.855C8.75521 141.792 8.51823 141.738 8.27344 141.691C8.02865 141.649 7.78646 141.618 7.54688 141.597C7.3125 141.582 7.10156 141.574 6.91406 141.574C6.41406 141.574 6.05469 141.605 5.83594 141.667C5.61719 141.73 5.50781 141.85 5.50781 142.027C5.50781 142.089 5.52083 142.152 5.54688 142.214C5.57292 142.277 5.6224 142.342 5.69531 142.41C5.77344 142.483 5.88021 142.561 6.01563 142.644C6.15104 142.727 6.32813 142.819 6.54688 142.917L9.96875 143.433ZM10.7344 154.952C10.5521 155.097 10.3385 155.209 10.0938 155.287C9.85417 155.371 9.59375 155.412 9.3125 155.412C8.90625 155.412 8.53385 155.337 8.19531 155.186C7.86198 155.04 7.57552 154.832 7.33594 154.561C7.09635 154.29 6.90885 153.965 6.77344 153.584C6.64323 153.209 6.57813 152.795 6.57813 152.342C6.57813 152.014 6.61198 151.707 6.67969 151.42C6.7526 151.134 6.84115 150.907 6.94531 150.741C6.79948 150.642 6.66146 150.558 6.53125 150.491C6.40104 150.423 6.25521 150.389 6.09375 150.389C5.89583 150.389 5.73177 150.483 5.60156 150.67C5.47135 150.863 5.40104 151.116 5.39063 151.428L5.3125 153.491C5.30208 153.881 5.2526 154.241 5.16406 154.569C5.07552 154.902 4.94792 155.186 4.78125 155.42C4.61458 155.66 4.40885 155.845 4.16406 155.975C3.91927 156.11 3.63542 156.178 3.3125 156.178C2.96354 156.178 2.63281 156.103 2.32031 155.952C2.00781 155.801 1.73438 155.566 1.5 155.248C1.26042 154.936 1.07031 154.537 0.929688 154.053C0.789063 153.569 0.71875 152.993 0.71875 152.327C0.71875 151.691 0.770833 151.149 0.875 150.702C0.973958 150.259 1.11458 149.894 1.29688 149.608C1.47396 149.321 1.6875 149.113 1.9375 148.983C2.18229 148.853 2.45313 148.787 2.75 148.787C3.13021 148.787 3.46354 148.876 3.75 149.053C4.03646 149.23 4.3125 149.504 4.57813 149.873C4.64063 149.738 4.71875 149.621 4.8125 149.522C4.90625 149.423 5.00781 149.342 5.11719 149.28C5.23177 149.217 5.35156 149.17 5.47656 149.139C5.60156 149.108 5.72396 149.092 5.84375 149.092C6.18229 149.092 6.49219 149.17 6.77344 149.327C7.05469 149.488 7.32031 149.678 7.57031 149.897C7.6901 149.798 7.80729 149.709 7.92188 149.631C8.03646 149.558 8.15885 149.493 8.28906 149.436C8.42448 149.384 8.56771 149.342 8.71875 149.311C8.875 149.285 9.05208 149.272 9.25 149.272C9.65625 149.272 10.026 149.345 10.3594 149.491C10.6979 149.642 10.987 149.85 11.2266 150.116C11.4661 150.386 11.651 150.709 11.7813 151.084C11.9167 151.465 11.9844 151.884 11.9844 152.342C11.9844 152.535 11.9714 152.72 11.9453 152.897C11.9193 153.074 11.8854 153.23 11.8438 153.366V156.209H10.7344V154.952ZM2.86719 150.233C2.4974 150.233 2.22917 150.426 2.0625 150.811C1.89063 151.196 1.80469 151.733 1.80469 152.42C1.80469 152.853 1.84375 153.215 1.92188 153.506C2 153.803 2.10417 154.04 2.23438 154.217C2.35938 154.399 2.50521 154.53 2.67188 154.608C2.83333 154.686 3 154.725 3.17188 154.725C3.48958 154.725 3.72396 154.595 3.875 154.334C4.02604 154.074 4.11458 153.676 4.14063 153.139L4.21094 151.092C4.09635 150.92 3.98438 150.777 3.875 150.662C3.76563 150.553 3.65625 150.467 3.54688 150.405C3.43229 150.342 3.32031 150.298 3.21094 150.272C3.09635 150.246 2.98177 150.233 2.86719 150.233ZM9.28125 150.647C9.03125 150.647 8.80208 150.689 8.59375 150.772C8.38542 150.855 8.20833 150.972 8.0625 151.123C7.91667 151.274 7.80208 151.452 7.71875 151.655C7.64063 151.863 7.60156 152.092 7.60156 152.342C7.60156 152.613 7.64583 152.853 7.73438 153.061C7.82813 153.274 7.95313 153.452 8.10938 153.592C8.26563 153.738 8.44531 153.847 8.64844 153.92C8.85156 153.998 9.0625 154.037 9.28125 154.037C9.53125 154.037 9.76042 153.996 9.96875 153.912C10.1771 153.829 10.3542 153.712 10.5 153.561C10.6458 153.41 10.7578 153.23 10.8359 153.022C10.9193 152.819 10.9609 152.592 10.9609 152.342C10.9609 152.071 10.9141 151.829 10.8203 151.616C10.7266 151.407 10.6016 151.23 10.4453 151.084C10.2943 150.944 10.1172 150.834 9.91406 150.756C9.71094 150.683 9.5 150.647 9.28125 150.647ZM4 164.814H9.63281C9.8776 164.814 10.0781 164.803 10.2344 164.782C10.3906 164.767 10.513 164.738 10.6016 164.697C10.6953 164.66 10.7604 164.611 10.7969 164.548C10.8333 164.491 10.8516 164.418 10.8516 164.329C10.8516 164.225 10.8203 164.129 10.7578 164.04C10.6953 163.952 10.5938 163.855 10.4531 163.751C10.3125 163.652 10.125 163.54 9.89063 163.415C9.66146 163.296 9.3776 163.152 9.03906 162.986H4V161.743H9.48438C9.77083 161.743 10.0026 161.733 10.1797 161.712C10.3568 161.697 10.4948 161.668 10.5938 161.626C10.6927 161.59 10.7604 161.54 10.7969 161.478C10.8333 161.415 10.8516 161.34 10.8516 161.251C10.8516 161.157 10.8255 161.069 10.7734 160.986C10.7214 160.902 10.6276 160.809 10.4922 160.704C10.3568 160.605 10.1719 160.493 9.9375 160.368C9.70313 160.243 9.40365 160.095 9.03906 159.923H4V158.673H11.8438V159.712L10.3516 159.775C10.6484 159.91 10.901 160.04 11.1094 160.165C11.3177 160.296 11.4844 160.428 11.6094 160.564C11.7396 160.699 11.8333 160.842 11.8906 160.993C11.9531 161.15 11.9844 161.322 11.9844 161.509C11.9844 161.931 11.8464 162.251 11.5703 162.47C11.2943 162.689 10.8672 162.798 10.2891 162.798C10.5599 162.923 10.7995 163.046 11.0078 163.165C11.2214 163.285 11.3984 163.413 11.5391 163.548C11.6849 163.689 11.7943 163.842 11.8672 164.009C11.9453 164.176 11.9844 164.368 11.9844 164.587C11.9844 165.572 11.2266 166.064 9.71094 166.064H4V164.814ZM4 174.176L5.05469 174.145C4.63281 173.718 4.32813 173.283 4.14063 172.84C3.95313 172.402 3.85938 171.942 3.85938 171.457C3.85938 171.009 3.91667 170.626 4.03125 170.309C4.14583 169.991 4.30208 169.728 4.5 169.52C4.70313 169.317 4.9401 169.166 5.21094 169.067C5.48177 168.973 5.77604 168.926 6.09375 168.926C6.88021 168.926 7.49479 169.218 7.9375 169.801C8.38542 170.389 8.60938 171.257 8.60938 172.402V174.027H9.29688C9.76042 174.027 10.1302 173.879 10.4063 173.582C10.6875 173.285 10.8281 172.832 10.8281 172.223C10.8281 171.78 10.7786 171.343 10.6797 170.91C10.5807 170.483 10.4401 170.041 10.2578 169.582H11.4844C11.5469 169.754 11.6068 169.944 11.6641 170.152C11.7266 170.366 11.7813 170.59 11.8281 170.824C11.875 171.059 11.9115 171.304 11.9375 171.559C11.9688 171.814 11.9844 172.072 11.9844 172.332C11.9844 172.806 11.9323 173.233 11.8281 173.613C11.724 173.994 11.5651 174.314 11.3516 174.574C11.138 174.84 10.8698 175.043 10.5469 175.184C10.224 175.324 9.84375 175.395 9.40625 175.395H4L4 174.176ZM7.57031 174.027V172.301C7.57031 171.962 7.53646 171.671 7.46875 171.426C7.40104 171.181 7.30469 170.981 7.17969 170.824C7.05469 170.668 6.90365 170.551 6.72656 170.473C6.55469 170.4 6.35938 170.363 6.14063 170.363C5.98958 170.363 5.84375 170.387 5.70313 170.434C5.56771 170.481 5.44531 170.556 5.33594 170.66C5.23177 170.764 5.14844 170.9 5.08594 171.067C5.02344 171.233 4.99219 171.436 4.99219 171.676C4.99219 171.988 5.08594 172.345 5.27344 172.746C5.46615 173.152 5.76823 173.58 6.17969 174.027H7.57031ZM10.7188 181.726L10.7188 179.405H11.8438L11.8438 183.101H5.13281V185.437H4V179.147H5.13281V181.726H10.7188ZM15.1328 182.202C15.1328 182.353 15.1042 182.494 15.0469 182.624C14.9948 182.754 14.9193 182.866 14.8203 182.96C14.7214 183.059 14.6068 183.134 14.4766 183.187C14.3516 183.244 14.2135 183.272 14.0625 183.272C13.9167 183.272 13.7786 183.244 13.6484 183.187C13.5182 183.134 13.4036 183.059 13.3047 182.96C13.2057 182.866 13.1276 182.754 13.0703 182.624C13.0182 182.494 12.9922 182.353 12.9922 182.202C12.9922 182.051 13.0182 181.911 13.0703 181.78C13.1276 181.65 13.2057 181.536 13.3047 181.437C13.4036 181.343 13.5182 181.267 13.6484 181.21C13.7786 181.158 13.9167 181.132 14.0625 181.132C14.2135 181.132 14.3516 181.158 14.4766 181.21C14.6068 181.267 14.7214 181.343 14.8203 181.437C14.9193 181.536 14.9948 181.65 15.0469 181.78C15.1042 181.911 15.1328 182.051 15.1328 182.202ZM13.9219 191.642V189.322H15.0391V193.017H5.13281V195.353H4V189.064H5.13281V191.642H13.9219ZM6.46094 201.973C6.46094 202.151 6.42708 202.317 6.35938 202.473C6.29167 202.635 6.19792 202.773 6.07813 202.887C5.95833 203.007 5.81771 203.101 5.65625 203.169C5.5 203.236 5.33073 203.27 5.14844 203.27C4.97135 203.27 4.80469 203.236 4.64844 203.169C4.49219 203.101 4.35417 203.007 4.23438 202.887C4.11979 202.773 4.02865 202.635 3.96094 202.473C3.89323 202.317 3.85938 202.151 3.85938 201.973C3.85938 201.791 3.89323 201.622 3.96094 201.466C4.02865 201.309 4.11979 201.171 4.23438 201.052C4.35417 200.937 4.49219 200.846 4.64844 200.778C4.80469 200.71 4.97135 200.677 5.14844 200.677C5.33073 200.677 5.5 200.71 5.65625 200.778C5.81771 200.846 5.95833 200.937 6.07813 201.052C6.19792 201.171 6.29167 201.309 6.35938 201.466C6.42708 201.622 6.46094 201.791 6.46094 201.973ZM4.28906 214.898C4.15365 214.544 4.05469 214.179 3.99219 213.804C3.92448 213.435 3.89063 213.052 3.89063 212.656C3.89063 211.416 4.22656 210.461 4.89844 209.789C5.57031 209.122 6.55208 208.789 7.84375 208.789C8.46354 208.789 9.02604 208.885 9.53125 209.078C10.0365 209.271 10.4688 209.541 10.8281 209.89C11.1875 210.239 11.4635 210.656 11.6563 211.14C11.8542 211.625 11.9531 212.159 11.9531 212.742C11.9531 213.148 11.9245 213.528 11.8672 213.882C11.8099 214.237 11.7161 214.575 11.5859 214.898H10.2891C10.4661 214.56 10.5938 214.213 10.6719 213.859C10.7552 213.51 10.7969 213.148 10.7969 212.773C10.7969 212.424 10.7292 212.093 10.5938 211.781C10.4635 211.474 10.2734 211.203 10.0234 210.968C9.77344 210.734 9.46875 210.549 9.10938 210.414C8.75 210.278 8.34375 210.211 7.89063 210.211C6.94271 210.211 6.23177 210.44 5.75781 210.898C5.28906 211.362 5.05469 212.002 5.05469 212.82C5.05469 213.19 5.09635 213.547 5.17969 213.89C5.26302 214.239 5.38802 214.575 5.55469 214.898H4.28906ZM7.98438 225.549C7.375 225.549 6.8151 225.463 6.30469 225.292C5.79948 225.12 5.36458 224.872 5 224.549C4.64063 224.226 4.35938 223.833 4.15625 223.37C3.95833 222.906 3.85938 222.38 3.85938 221.792C3.85938 221.229 3.94531 220.724 4.11719 220.276C4.29427 219.833 4.55208 219.456 4.89063 219.143C5.22917 218.836 5.64844 218.599 6.14844 218.432C6.64844 218.271 7.22396 218.19 7.875 218.19C8.48438 218.19 9.03906 218.276 9.53906 218.448C10.0443 218.62 10.4766 218.867 10.8359 219.19C11.2005 219.513 11.4818 219.906 11.6797 220.37C11.8828 220.833 11.9844 221.359 11.9844 221.948C11.9844 222.51 11.8958 223.013 11.7188 223.456C11.5469 223.904 11.2917 224.281 10.9531 224.588C10.6198 224.901 10.2031 225.138 9.70313 225.299C9.20313 225.466 8.63021 225.549 7.98438 225.549ZM7.92188 224.159C8.40625 224.159 8.82813 224.104 9.1875 223.995C9.55208 223.891 9.85417 223.739 10.0938 223.542C10.3385 223.344 10.5208 223.101 10.6406 222.815C10.7656 222.534 10.8281 222.219 10.8281 221.87C10.8281 221.463 10.7474 221.114 10.5859 220.823C10.4297 220.536 10.2188 220.299 9.95313 220.112C9.6875 219.93 9.3776 219.794 9.02344 219.706C8.67448 219.622 8.30729 219.581 7.92188 219.581C7.4375 219.581 7.01302 219.633 6.64844 219.737C6.28385 219.846 5.97917 220 5.73438 220.198C5.49479 220.396 5.3125 220.635 5.1875 220.917C5.06771 221.198 5.00781 221.516 5.00781 221.87C5.00781 222.276 5.08594 222.622 5.24219 222.909C5.40365 223.2 5.61719 223.437 5.88281 223.62C6.14844 223.807 6.45573 223.943 6.80469 224.026C7.15885 224.114 7.53125 224.159 7.92188 224.159ZM4 234.232H9.63281C9.8776 234.232 10.0781 234.221 10.2344 234.201C10.3906 234.185 10.513 234.156 10.6016 234.115C10.6953 234.078 10.7604 234.029 10.7969 233.966C10.8333 233.909 10.8516 233.836 10.8516 233.747C10.8516 233.643 10.8203 233.547 10.7578 233.458C10.6953 233.37 10.5938 233.274 10.4531 233.169C10.3125 233.07 10.125 232.958 9.89063 232.833C9.66146 232.714 9.3776 232.57 9.03906 232.404H4V231.162H9.48438C9.77083 231.162 10.0026 231.151 10.1797 231.13C10.3568 231.115 10.4948 231.086 10.5938 231.044C10.6927 231.008 10.7604 230.958 10.7969 230.896C10.8333 230.833 10.8516 230.758 10.8516 230.669C10.8516 230.576 10.8255 230.487 10.7734 230.404C10.7214 230.32 10.6276 230.227 10.4922 230.122C10.3568 230.024 10.1719 229.912 9.9375 229.787C9.70313 229.662 9.40365 229.513 9.03906 229.341H4V228.091H11.8438V229.13L10.3516 229.193C10.6484 229.328 10.901 229.458 11.1094 229.583C11.3177 229.714 11.4844 229.846 11.6094 229.982C11.7396 230.117 11.8333 230.261 11.8906 230.412C11.9531 230.568 11.9844 230.74 11.9844 230.927C11.9844 231.349 11.8464 231.669 11.5703 231.888C11.2943 232.107 10.8672 232.216 10.2891 232.216C10.5599 232.341 10.7995 232.464 11.0078 232.583C11.2214 232.703 11.3984 232.831 11.5391 232.966C11.6849 233.107 11.7943 233.261 11.8672 233.427C11.9453 233.594 11.9844 233.787 11.9844 234.005C11.9844 234.99 11.2266 235.482 9.71094 235.482H4V234.232Z" fill="#EEE6CE"/>
</svg>
