<svg width="50" height="50" viewBox="0 0 50 50" fill="none" xmlns="http://www.w3.org/2000/svg">
<g clip-path="url(#clip0_74_525)">
<path d="M25.2427 49.5145C38.6477 49.5145 49.5146 38.6476 49.5146 25.2427C49.5146 11.8377 38.6477 0.970825 25.2427 0.970825C11.8378 0.970825 0.970886 11.8377 0.970886 25.2427C0.970886 38.6476 11.8378 49.5145 25.2427 49.5145Z" fill="#17181D"/>
<path d="M17.9854 38.1675H17.9247C14.1869 38.1675 11.1529 35.1335 11.1529 31.3957V18.7379C11.1529 15 14.1869 11.9661 17.9247 11.9661H17.9854C21.7233 11.9661 24.7573 15 24.7573 18.7379V31.4078C24.7694 35.1335 21.7354 38.1675 17.9854 38.1675Z" fill="#3BACB6"/>
<path d="M33.2645 25.449H33.1431C29.4174 25.449 26.3956 22.4272 26.3956 18.7014C26.3956 14.9757 29.4174 11.9539 33.1431 11.9539H33.2645C36.9902 11.9539 40.0121 14.9757 40.0121 18.7014C40.0121 22.4272 36.9902 25.449 33.2645 25.449Z" fill="#3BACB6"/>
</g>
<defs>
<clipPath id="clip0_74_525">
<rect width="50" height="50" fill="white"/>
</clipPath>
</defs>
</svg>
