<svg width="30" height="22" viewBox="0 0 50 42" fill="none" xmlns="http://www.w3.org/2000/svg">
<path d="M50 35.4167V39.5833C50 40.1476 49.7938 40.6359 49.3815 41.0482C48.9692 41.4605 48.4809 41.6667 47.9167 41.6667H2.08333C1.5191 41.6667 1.03082 41.4605 0.61849 41.0482C0.206163 40.6359 0 40.1476 0 39.5833V35.4167C0 34.8524 0.206163 34.3642 0.61849 33.9518C1.03082 33.5395 1.5191 33.3333 2.08333 33.3333H47.9167C48.4809 33.3333 48.9692 33.5395 49.3815 33.9518C49.7938 34.3642 50 34.8524 50 35.4167ZM50 18.75V22.9167C50 23.4809 49.7938 23.9692 49.3815 24.3815C48.9692 24.7938 48.4809 25 47.9167 25H2.08333C1.5191 25 1.03082 24.7938 0.61849 24.3815C0.206163 23.9692 0 23.4809 0 22.9167V18.75C0 18.1858 0.206163 17.6975 0.61849 17.2852C1.03082 16.8728 1.5191 16.6667 2.08333 16.6667H47.9167C48.4809 16.6667 48.9692 16.8728 49.3815 17.2852C49.7938 17.6975 50 18.1858 50 18.75ZM50 2.08333V6.25C50 6.81424 49.7938 7.30252 49.3815 7.71484C48.9692 8.12717 48.4809 8.33333 47.9167 8.33333H2.08333C1.5191 8.33333 1.03082 8.12717 0.61849 7.71484C0.206163 7.30252 0 6.81424 0 6.25V2.08333C0 1.5191 0.206163 1.03082 0.61849 0.61849C1.03082 0.206163 1.5191 0 2.08333 0H47.9167C48.4809 0 48.9692 0.206163 49.3815 0.61849C49.7938 1.03082 50 1.5191 50 2.08333Z" fill="#272A40"/>
</svg>
