<svg width="42" height="34" viewBox="0 0 42 34" fill="none" xmlns="http://www.w3.org/2000/svg">
<path d="M4.85416 0.333313C2.28384 0.333313 0.166656 2.4505 0.166656 5.02081V28.9791C0.166656 31.5495 2.28384 33.6666 4.85416 33.6666H37.1458C39.7161 33.6666 41.8333 31.5495 41.8333 28.9791V10.2291C41.8333 7.65883 39.7161 5.54165 37.1458 5.54165H21.0448L16.3878 1.66184C15.3584 0.804261 14.0616 0.333313 12.7216 0.333313H4.85416ZM4.85416 3.45831H12.7216C13.3316 3.45831 13.9193 3.67223 14.3878 4.06256L18.0378 7.10415L14.3878 10.1457C13.9193 10.5361 13.3316 10.75 12.7216 10.75H3.29166V5.02081C3.29166 4.13904 3.97239 3.45831 4.85416 3.45831ZM21.0448 8.66665H37.1458C38.0276 8.66665 38.7083 9.34738 38.7083 10.2291V28.9791C38.7083 29.8609 38.0276 30.5416 37.1458 30.5416H4.85416C3.97239 30.5416 3.29166 29.8609 3.29166 28.9791V13.875H12.7216C14.0616 13.875 15.3584 13.404 16.3878 12.5464L21.0448 8.66665Z" fill="#82DBD8"/>
</svg>
