<svg class="github-color" width="25" height="26" viewBox="0 0 25 26" fill="currentcolor" xmlns="http://www.w3.org/2000/svg">
<path d="M17.8362 25.0264C17.5041 25.0264 17.1855 24.8944 16.9507 24.6596C16.7158 24.4247 16.5838 24.1061 16.5838 23.774V20.5178C16.6228 20.1432 16.5827 19.7647 16.4662 19.4065C16.3497 19.0484 16.1594 18.7188 15.9076 18.4388C15.7516 18.2697 15.6453 18.0609 15.6002 17.8354C15.5551 17.6098 15.573 17.3762 15.6519 17.1601C15.7308 16.9441 15.8677 16.7539 16.0476 16.6105C16.2274 16.4672 16.4433 16.3761 16.6715 16.3473C19.7274 15.9841 22.5452 15.0072 22.5452 9.70959C22.5462 8.72029 22.2542 7.75286 21.7061 6.92927C21.2004 6.17111 21.0157 5.24338 21.1927 4.34934C21.3055 3.76612 21.3055 3.16667 21.1927 2.58346C20.2549 2.90053 19.3719 3.36104 18.5752 3.94857C18.4245 4.05554 18.2521 4.12786 18.0702 4.16034C17.8883 4.19282 17.7015 4.18465 17.5231 4.13643C15.263 3.49778 12.8701 3.49778 10.6099 4.13643C10.4316 4.18465 10.2448 4.19282 10.0629 4.16034C9.88099 4.12786 9.70855 4.05554 9.55791 3.94857C8.75629 3.35423 7.86395 2.89326 6.91535 2.58346C6.79625 3.16606 6.79625 3.76673 6.91535 4.34934C7.07952 5.25463 6.8865 6.18833 6.37682 6.95432C5.8311 7.78368 5.53947 8.75436 5.53772 9.74716C5.53772 14.619 7.89222 15.9215 11.424 16.3723C11.6551 16.401 11.8736 16.4936 12.055 16.6396C12.2364 16.7856 12.3735 16.9793 12.4509 17.1989C12.5238 17.412 12.5378 17.6408 12.4915 17.8612C12.4452 18.0816 12.3403 18.2855 12.1879 18.4513C11.9443 18.7117 11.7574 19.0197 11.6388 19.356C11.5203 19.6923 11.4727 20.0495 11.4991 20.405V23.774C11.4991 24.1061 11.3672 24.4247 11.1323 24.6596C10.8974 24.8944 10.5789 25.0264 10.2467 25.0264C9.91457 25.0264 9.59601 24.8944 9.36115 24.6596C9.12628 24.4247 8.99433 24.1061 8.99433 23.774V23.0601C7.76368 23.2017 6.51713 23.0367 5.36561 22.5801C4.2141 22.1234 3.19335 21.3891 2.3942 20.4426C1.98342 19.9873 1.49057 19.6134 0.941424 19.3405C0.781891 19.2994 0.632019 19.2273 0.500364 19.1282C0.36871 19.0292 0.257851 18.9052 0.174118 18.7633C0.0903855 18.6214 0.035418 18.4644 0.0123543 18.3013C-0.0107094 18.1382 -0.00141745 17.9721 0.0396993 17.8126C0.080816 17.6531 0.152953 17.5032 0.25199 17.3715C0.351028 17.2399 0.475027 17.129 0.616907 17.0453C0.758788 16.9615 0.915772 16.9066 1.0789 16.8835C1.24202 16.8605 1.40809 16.8697 1.56762 16.9109C2.53103 17.2618 3.39186 17.8472 4.07241 18.6141C5.32481 19.8665 6.5772 20.9686 8.95676 20.5178C8.91492 19.8453 9.013 19.1716 9.24481 18.539C6.66487 17.8877 2.98283 16.0342 2.98283 9.77221C2.97953 8.28891 3.41529 6.83781 4.23522 5.60173C4.38752 5.37355 4.44585 5.09538 4.39804 4.82525C4.14496 3.47338 4.2885 2.07716 4.81133 0.805056C4.88237 0.635437 4.98989 0.483544 5.12625 0.360166C5.26262 0.236789 5.42448 0.144956 5.60034 0.0911904C6.02615 -0.0340491 7.55407 -0.284528 10.4471 1.59407C12.7891 1.03049 15.2313 1.03049 17.5732 1.59407C20.4663 -0.284528 21.9942 -0.0465731 22.4075 0.0911904C22.5833 0.144956 22.7452 0.236789 22.8816 0.360166C23.0179 0.483544 23.1255 0.635437 23.1965 0.805056C23.7204 2.08129 23.8639 3.48181 23.6098 4.83777C23.5842 4.95994 23.5831 5.086 23.6068 5.20857C23.6305 5.33114 23.6783 5.44777 23.7475 5.55164C24.5699 6.79127 25.0057 8.24708 24.9999 9.73464C24.9999 16.0843 21.3429 17.9253 18.738 18.5014C18.9674 19.1734 19.0611 19.8844 19.0135 20.5929V23.774C19.0141 24.0935 18.8925 24.4012 18.6736 24.634C18.4548 24.8669 18.1552 25.0072 17.8362 25.0264Z"/>
</svg>
