<svg width="36" height="23" viewBox="0 0 36 23" fill="none" xmlns="http://www.w3.org/2000/svg">
<path fill-rule="evenodd" clip-rule="evenodd" d="M11.6 3.5C9.45175 3.5 7.39148 4.35339 5.87244 5.87244C4.35339 7.39148 3.5 9.45175 3.5 11.6C3.5 13.7483 4.35339 15.8085 5.87244 17.3276C7.39148 18.8466 9.45175 19.7 11.6 19.7H13.2C14.0284 19.7 14.7 20.3716 14.7 21.2C14.7 22.0284 14.0284 22.7 13.2 22.7H11.6C8.6561 22.7 5.83277 21.5305 3.75111 19.4489C1.66946 17.3672 0.5 14.5439 0.5 11.6C0.5 8.6561 1.66946 5.83277 3.75111 3.75112C5.83277 1.66946 8.6561 0.5 11.6 0.5H13.2C14.0284 0.5 14.7 1.17157 14.7 2C14.7 2.82843 14.0284 3.5 13.2 3.5H11.6ZM21.3 2C21.3 1.17157 21.9716 0.5 22.8 0.5H24.4C27.3439 0.5 30.1672 1.66946 32.2489 3.75112C34.3305 5.83277 35.5 8.6561 35.5 11.6C35.5 14.5439 34.3305 17.3672 32.2489 19.4489C30.1672 21.5305 27.3439 22.7 24.4 22.7H22.8C21.9716 22.7 21.3 22.0284 21.3 21.2C21.3 20.3716 21.9716 19.7 22.8 19.7H24.4C26.5483 19.7 28.6085 18.8466 30.1276 17.3276C31.6466 15.8085 32.5 13.7483 32.5 11.6C32.5 9.45175 31.6466 7.39148 30.1276 5.87244C28.6085 4.35339 26.5483 3.5 24.4 3.5H22.8C21.9716 3.5 21.3 2.82843 21.3 2ZM11.7 11.6C11.7 10.7716 12.3716 10.1 13.2 10.1H22.8C23.6284 10.1 24.3 10.7716 24.3 11.6C24.3 12.4284 23.6284 13.1 22.8 13.1H13.2C12.3716 13.1 11.7 12.4284 11.7 11.6Z" fill="black"/>
</svg>
