<svg width="71" height="71" viewBox="0 0 71 71" fill="none" xmlns="http://www.w3.org/2000/svg">
<path d="M12.5729 0H58.4271C65.3792 0 71 5.76496 71 12.8953V58.1047C71 65.235 65.3792 71 58.4271 71H12.5729C5.62083 71 0 65.235 0 58.1047V12.8953C0 5.76496 5.62083 0 12.5729 0Z" fill="#470137"/>
<path d="M36.8762 21.0863L28.0391 36.0413L37.4653 51.9027C37.5242 52.0235 37.5537 52.1444 37.5242 52.2652C37.4948 52.3861 37.377 52.2954 37.2002 52.3257H30.4546C29.9833 52.3257 29.6593 52.2955 29.4531 51.9933C28.8345 50.7244 28.1864 49.4857 27.5678 48.2168C26.9492 46.9781 26.2717 45.7092 25.5648 44.4101C24.8578 43.111 24.1508 41.8118 23.4439 40.4825H23.385C22.7664 41.7816 22.0889 43.0807 21.4114 44.3799C20.7338 45.679 20.0563 46.9781 19.4083 48.247C18.7308 49.5159 18.0533 50.8151 17.3758 52.0538C17.2579 52.3559 17.0223 52.3861 16.6983 52.3861H10.2178C10.0999 52.3861 10.0116 52.4465 10.0116 52.2955C9.9821 52.1746 10.0116 52.0538 10.0705 51.9631L19.2315 36.5549L10.3061 21.0561C10.2178 20.9352 10.1883 20.8144 10.2472 20.754C10.3061 20.6633 10.424 20.6331 10.5418 20.6331H17.2285C17.3758 20.6331 17.5231 20.6633 17.6409 20.6935C17.7587 20.754 17.8471 20.8446 17.9354 20.9655C18.4951 22.2646 19.1432 23.5637 19.8207 24.8628C20.5276 26.1619 21.2052 27.4309 21.9416 28.6998C22.6485 29.9687 23.2966 31.2376 23.9152 32.5367H23.9741C24.5927 31.2074 25.2407 29.9082 25.8888 28.6393C26.5368 27.3704 27.2143 26.1015 27.8919 24.8326C28.5694 23.5637 29.2174 22.2646 29.8655 21.0259C29.8949 20.905 29.9538 20.7842 30.0422 20.7238C30.16 20.6633 30.2779 20.6331 30.4251 20.6633H36.6405C36.7878 20.6331 36.9351 20.7238 36.9646 20.8748C36.994 20.905 36.9351 21.0259 36.8762 21.0863Z" fill="#FF61F6"/>
<path d="M50.4852 52.9601C48.3054 52.9904 46.1256 52.5372 44.152 51.6006C42.2962 50.7244 40.7644 49.2743 39.704 47.4917C38.6141 45.6488 38.0839 43.3527 38.0839 40.6034C38.0544 38.3677 38.6141 36.1622 39.704 34.2286C40.8234 32.2648 42.4435 30.6334 44.3876 29.5457C46.4496 28.3675 48.924 27.7934 51.8402 27.7934C51.9875 27.7934 52.1937 27.7934 52.4588 27.8236C52.7239 27.8539 53.0185 27.8539 53.372 27.8841V18.337C53.372 18.1255 53.4603 18.0047 53.6665 18.0047H59.6463C59.7936 17.9745 59.9114 18.0953 59.9408 18.2162C59.9408 18.2464 59.9408 18.2766 59.9408 18.2766V47.0386C59.9408 47.5824 59.9703 48.1866 59.9998 48.8513C60.0587 49.4857 60.0881 50.09 60.1176 50.6036C60.1176 50.8151 60.0292 50.9964 59.823 51.087C58.2913 51.7517 56.6711 52.2351 55.0216 52.5372C53.5193 52.8091 52.017 52.9601 50.4852 52.9601ZM53.372 46.9177V33.6244C53.1069 33.5639 52.8417 33.5035 52.5766 33.4733C52.2526 33.4431 51.9286 33.4129 51.6046 33.4129C50.4557 33.4129 49.3069 33.6546 48.2759 34.1984C47.2744 34.712 46.4202 35.4673 45.7721 36.4341C45.1241 37.4009 44.8 38.7 44.8 40.271C44.7706 41.3285 44.9473 42.3859 45.3008 43.3829C45.5954 44.1986 46.0372 44.9237 46.6264 45.528C47.186 46.0718 47.8635 46.4947 48.6294 46.7364C49.4248 47.0084 50.2495 47.1292 51.0743 47.1292C51.5162 47.1292 51.9286 47.099 52.3115 47.0688C52.6945 47.099 53.0185 47.0386 53.372 46.9177Z" fill="#FF61F6"/>
</svg>
