<svg width="68" height="68" viewBox="0 0 68 68" fill="none" xmlns="http://www.w3.org/2000/svg">
<path d="M0.785156 59.1752C0.785156 63.9612 4.66452 67.84 9.44996 67.84H59.3204C64.1063 67.84 67.9852 63.9606 67.9852 59.1752V9.30482C67.9852 4.51885 64.1058 0.640015 59.3204 0.640015H9.44996C4.66399 0.640015 0.785156 4.51938 0.785156 9.30482V59.1752Z" fill="#563D7C"/>
<path d="M27.0116 30.5488V21.0322H35.3885C36.1863 21.0322 36.9556 21.0987 37.6964 21.2317C38.4372 21.3646 39.0925 21.6021 39.6624 21.944C40.2322 22.2859 40.6881 22.7608 41.03 23.3686C41.3719 23.9765 41.5429 24.7553 41.5429 25.705C41.5429 27.4146 41.03 28.6493 40.0043 29.4091C38.9785 30.1689 37.6679 30.5488 36.0723 30.5488H27.0116ZM18.0649 14.08V54.7675H37.7819C39.6054 54.7675 41.3814 54.5396 43.11 54.0837C44.8385 53.6278 46.3771 52.925 47.7258 51.9752C49.0744 51.0255 50.1477 49.8003 50.9455 48.2997C51.7433 46.7991 52.1421 45.023 52.1421 42.9716C52.1421 40.4262 51.5248 38.2513 50.2901 36.4467C49.0554 34.6422 47.1844 33.379 44.6771 32.6572C46.5006 31.7834 47.8777 30.6627 48.8085 29.2951C49.7393 27.9274 50.2046 26.2179 50.2046 24.1664C50.2046 22.2669 49.8912 20.6713 49.2644 19.3797C48.6375 18.088 47.7543 17.0528 46.6146 16.274C45.4749 15.4951 44.1072 14.9348 42.5116 14.5929C40.916 14.251 39.1495 14.08 37.212 14.08H18.0649ZM27.0116 47.8153V36.6462H36.7561C38.6936 36.6462 40.2512 37.0926 41.4289 37.9853C42.6066 38.8781 43.1955 40.3692 43.1955 42.4587C43.1955 43.5224 43.015 44.3962 42.6541 45.08C42.2932 45.7638 41.8088 46.3052 41.201 46.7041C40.5931 47.103 39.8903 47.3879 39.0925 47.5589C38.2947 47.7298 37.4589 47.8153 36.5852 47.8153H27.0116Z" fill="white"/>
</svg>
