<svg width="68" height="76" viewBox="0 0 68 76" fill="none" xmlns="http://www.w3.org/2000/svg">
<path d="M68 0H0L6 68L34 76L62 68L68 0Z" fill="#0277BD"/>
<path d="M34 6V69.8L56.4 63.4L61.4 6H34Z" fill="#039BE5"/>
<path d="M52.2 16H34V24H43.8L43.2 32H34V40H42.8L42.2 49L34 51.8V60.2L49.8 55L51.2 32L52.2 16Z" fill="white"/>
<path d="M34.0001 16V24H16.2001L15.6001 16H34.0001ZM24.8001 32L25.2001 40H34.0001V32H24.8001ZM25.6001 44H17.6001L18.2001 55L34.0001 60.2V51.8L25.8001 49L25.6001 44Z" fill="#EEEEEE"/>
</svg>
