<svg width="52" height="78" viewBox="0 0 52 78" fill="none" xmlns="http://www.w3.org/2000/svg">
<path d="M28 26H13.0667C5.85013 26 0 20.1797 0 13C0 5.82029 5.85013 0 13.0667 0H28V26Z" fill="#E64A19"/>
<path d="M26 52H13C5.82029 52 0 46.1797 0 39C0 31.8203 5.82029 26 13 26H26V52Z" fill="#7C4DFF"/>
<path d="M13 78C5.82029 78 0 72.1797 0 65C0 57.8203 5.82029 52 13 52H26V65C26 72.1797 20.1797 78 13 78Z" fill="#66BB6A"/>
<path d="M39 26H26V0H39C46.1797 0 52 5.82029 52 13C52 20.1797 46.1797 26 39 26Z" fill="#FF7043"/>
<path d="M39 52C46.1797 52 52 46.1797 52 39C52 31.8203 46.1797 26 39 26C31.8203 26 26 31.8203 26 39C26 46.1797 31.8203 52 39 52Z" fill="#29B6F6"/>
</svg>
