<svg width="60" height="81" viewBox="0 0 60 81" fill="none" xmlns="http://www.w3.org/2000/svg">
<path d="M29.3001 41.798C27.3041 38.58 25.8561 35.912 23.8501 30.888C20.4581 22.402 44.4801 14.734 34.7401 0C38.9621 10.178 19.5861 16.47 17.7861 24.946C16.1401 32.742 29.2901 41.798 29.3001 41.798Z" fill="#F44336"/>
<path d="M29.7561 26.542C29.3721 31.574 34.2141 34.256 34.3541 37.932C34.4661 40.924 31.4601 43.418 31.4601 43.418C31.4601 43.418 36.9161 42.346 38.6181 37.782C40.5081 32.714 34.9501 29.244 35.5221 25.186C36.0561 21.31 47.5841 14.1 47.5841 14.1C47.5841 14.1 30.6221 15.224 29.7561 26.542Z" fill="#F44336"/>
<path d="M46.168 42.112C49.676 41.324 52.634 43.558 52.634 46.132C52.634 51.934 44.592 57.418 44.592 57.418C44.592 57.418 57.042 55.934 57.042 46.408C57.042 40.108 50.928 38.534 46.168 42.112ZM40.258 46.792C40.258 46.792 44.14 44.026 45.174 42.988C35.648 45.01 13.898 45.282 13.898 43.526C13.898 41.908 20.912 40.25 20.912 40.25C20.912 40.25 5.36597 40.026 5.36597 44.612C5.36597 49.392 25.716 49.734 40.258 46.792Z" fill="#1565C0"/>
<path d="M37.8701 51.144C28.8521 54.142 12.2421 53.184 17.1621 49.158C14.7661 49.158 11.2141 51.084 11.2141 52.936C11.2141 56.65 29.1781 59.518 42.4741 54.08L37.8701 51.144Z" fill="#1565C0"/>
<path d="M19.3719 57.48C16.0999 57.48 13.9819 59.588 13.9819 61.124C13.9819 65.906 33.5019 66.388 41.2359 61.534L36.3199 58.27C30.5419 60.81 16.0279 61.16 19.3719 57.48Z" fill="#1565C0"/>
<path d="M54.562 65.266C54.562 63.394 52.452 62.512 51.696 62.09C56.152 72.836 7.062 72.002 7.062 65.658C7.062 64.216 10.676 62.804 14.016 63.472L11.176 61.794C4.52 60.75 0 63.676 0 66.036C0 77.042 54.562 76.512 54.562 65.266Z" fill="#1565C0"/>
<path d="M60.0001 69.21C51.7081 77.4 30.6821 80.384 9.53809 75.324C30.6821 84.33 59.9001 79.258 60.0001 69.21Z" fill="#1565C0"/>
</svg>
