<svg width="67" height="66" viewBox="0 0 67 66" fill="none" xmlns="http://www.w3.org/2000/svg">
<path d="M66.1052 0.119934H0.825195V65.3999H66.1052V0.119934Z" fill="#F1DC50"/>
<path fill-rule="evenodd" clip-rule="evenodd" d="M30.9652 30.0399H35.9652V51.7999C35.9652 53.4367 35.4859 55.3883 34.1968 56.9844C32.838 58.6669 30.7464 59.7399 28.0252 59.7399C23.9355 59.7399 21.4493 57.9527 20.0995 55.8878C19.4681 54.9218 19.133 53.9713 18.9535 53.2701C18.8627 52.9157 18.8086 52.6128 18.7763 52.3864C18.7601 52.2727 18.7492 52.1771 18.742 52.1025C18.7384 52.0652 18.7357 52.033 18.7336 52.0063L18.731 51.9704L18.7301 51.9556L18.7297 51.949L18.7295 51.9459C18.7294 51.9444 18.7293 51.943 21.2252 51.7999C23.7211 51.6569 23.721 51.6554 23.721 51.654L23.7208 51.6513L23.7205 51.6462L23.7199 51.6373L23.719 51.6247C23.7186 51.6186 23.7184 51.617 23.7186 51.6195C23.7191 51.6246 23.7213 51.6459 23.7263 51.681C23.7364 51.752 23.7573 51.8741 23.7972 52.0297C23.8788 52.3485 24.0272 52.758 24.2847 53.1521C24.7129 53.8071 25.6267 54.7399 28.0252 54.7399C29.3218 54.7399 29.9503 54.2845 30.307 53.8429C30.7334 53.3148 30.9652 52.5464 30.9652 51.7999V30.0399ZM41.8452 38.1999C41.8452 33.9077 45.4934 30.2599 50.8829 30.2599C54.6382 30.2599 57.5398 32.2661 59.5236 35.6072L55.2243 38.1599C53.9436 36.0029 52.5179 35.2599 50.8829 35.2599C47.8556 35.2599 46.8452 37.0521 46.8452 38.1999C46.8452 39.1215 47.0636 39.8517 47.604 40.4803C48.1786 41.1488 49.349 41.9707 51.7721 42.574C53.6892 43.0512 55.8097 43.8556 57.489 45.2978C59.2588 46.8176 60.4452 48.976 60.4452 51.7999C60.4452 54.7113 59.1018 56.8449 57.1236 58.141C55.2809 59.3484 53.0461 59.7399 51.1452 59.7399C48.7209 59.7399 46.4959 59.2038 44.6302 57.96C42.7516 56.7076 41.446 54.8763 40.6365 52.6563L45.334 50.9435C45.8469 52.3502 46.5624 53.2389 47.4037 53.7998C48.2581 54.3694 49.4519 54.7399 51.1452 54.7399C52.4663 54.7399 53.6315 54.4515 54.3833 53.9588C54.9997 53.555 55.4452 52.9685 55.4452 51.7999C55.4452 50.5438 54.9813 49.7349 54.2315 49.0911C53.3914 48.3696 52.1233 47.814 50.5642 47.4259C47.5243 46.6691 45.2833 45.451 43.8122 43.7395C42.3068 41.9881 41.8452 39.9983 41.8452 38.1999Z" fill="#333333"/>
</svg>
