<svg width="80" height="81" viewBox="0 0 80 81" fill="none" xmlns="http://www.w3.org/2000/svg">
<path d="M7.72086 0C4.42511 0 1.8219 1.74731 0.589546 4.77315C0.198886 5.70718 0.00355647 6.69804 4.33213e-06 7.72086C-0.00354689 11.1054 2.17704 13.8542 3.48753 15.4985C3.71837 15.7862 3.92436 16.0419 4.141 16.3509L4.73054 17.1322C5.31653 17.8993 5.9842 18.7694 6.19373 19.2062C6.26121 19.4051 6.35355 19.7567 6.47785 20.2007C7.04964 22.2569 8.11507 26.0748 9.80911 28.9798C10.4945 30.1518 11.4534 31.6221 12.146 32.6591C11.6843 34.9711 10.903 39.2329 10.903 41.8219C10.903 46.3677 11.8441 50.0186 13.9004 53.357C14.6604 54.5503 16.9795 58.187 20.9038 58.187C22.296 58.187 24.6116 57.6436 25.2366 54.188C28.0174 57.7786 32.7231 62.2782 39.9964 65.4603C39.9964 65.4603 26.3624 49.5498 23.9652 39.6342C23.9652 39.6342 21.3584 42.2765 19.1423 47.6747C18.4818 46.0091 18.1763 44.1303 18.1763 41.8219C18.1763 39.5419 19.1778 34.4455 19.5685 32.6734L19.9094 31.132L19.0145 29.8322C19.0003 29.8073 17.1677 27.1615 16.0952 25.3218C14.8735 23.2265 13.9714 19.984 13.4884 18.2474C13.2505 17.3986 13.0658 16.7877 12.8918 16.3722C12.2561 14.9942 11.322 13.7832 10.5052 12.7142L10.0506 12.1104C9.81977 11.7802 9.51789 11.3966 9.17695 10.9669C8.51283 10.1287 7.27338 8.5732 7.30889 7.57169L7.71376 7.28758L7.72086 7.27337C10.6117 7.27337 14.3372 9.32611 15.74 10.1003C16.1982 10.3525 16.5356 10.5229 16.7131 10.6046L17.3453 10.8816L18.5883 10.9243C20.2149 10.9598 25.1549 11.077 28.646 12.4727C35.0138 15.0191 38.5332 17.5655 42.1131 22.2179C50.5656 33.2096 53.6837 47.4403 53.7122 47.5823L54.1667 49.6351L56.1556 50.2814C56.223 50.3063 61.7917 52.1673 66.9804 57.0292C60.4528 58.6451 58.1799 61.8237 58.1799 61.8237C58.1799 61.8237 59.9094 65.1975 68.1808 70.4608C73.1812 73.6429 75.9087 75.9158 80 80.0071C80 80.0071 75.9123 70.9154 70.198 63.6704C74.5485 62.2782 79.8935 61.5538 79.8935 61.5538L76.5835 56.9653C71.1356 49.4113 63.8302 45.6006 60.3534 44.1161C59.1459 39.5134 55.4985 27.6907 47.8807 17.7857C43.5195 12.1176 38.8813 8.72592 31.3451 5.71073C26.8845 3.9279 21.5182 3.71482 19.1281 3.658C17.0363 2.50732 12.391 0 7.72086 0ZM22.4949 14.5467C22.4949 14.5467 20.9038 14.5467 19.0855 15.0013L24.0859 21.813C25.4497 20.0018 25.4497 17.8851 25.4497 17.8851C25.4497 17.8851 24.5441 15.4559 22.4949 14.5467Z" fill="#237DB7"/>
</svg>
