<svg width="72" height="72" viewBox="0 0 72 72" fill="none" xmlns="http://www.w3.org/2000/svg">
<path d="M0 8C0 3.582 3.582 0 8 0H64C68.418 0 72 3.582 72 8V64C72 68.418 68.418 72 64 72H8C3.582 72 0 68.418 0 64V8Z" fill="#03A9F4"/>
<path d="M28.0318 26.348H24.0278V35.216H27.9738C29.0678 35.216 29.9138 34.858 30.5138 34.142C31.1138 33.426 31.4118 32.384 31.4118 31.016C31.4118 29.596 31.1058 28.468 30.4938 27.628C29.8818 26.788 29.0598 26.362 28.0318 26.348Z" fill="#020F16"/>
<path d="M6 6V66H66V6H6ZM34.73 37.578C33.078 39.194 30.786 40 27.856 40H24.028V50H18.286V21.562H27.974C30.786 21.562 33.03 22.436 34.702 24.18C36.374 25.924 37.212 28.19 37.212 30.976C37.212 33.762 36.384 35.962 34.73 37.578ZM53.364 48.672C51.946 49.818 50.082 50.39 47.778 50.39C46.228 50.39 44.86 50.088 43.676 49.482C42.492 48.876 41.562 48.032 40.892 46.952C40.222 45.872 39.886 44.706 39.886 43.456H45.14C45.168 44.418 45.39 45.142 45.814 45.624C46.238 46.106 46.93 46.346 47.894 46.346C49.378 46.346 50.12 45.676 50.12 44.334C50.12 43.866 49.896 43.432 49.446 43.036C48.996 42.64 48 42.104 46.45 41.426C44.172 40.502 42.606 39.546 41.752 38.554C40.898 37.562 40.472 36.334 40.472 34.862C40.472 33.012 41.14 31.486 42.474 30.282C43.808 29.078 45.578 28.476 47.776 28.476C50.092 28.476 51.948 29.076 53.342 30.272C54.736 31.468 55.432 33.078 55.432 35.096H49.904C49.904 33.378 49.19 32.518 47.756 32.518C47.17 32.518 46.69 32.7 46.31 33.064C45.93 33.428 45.744 33.938 45.744 34.588C45.744 35.056 45.952 35.47 46.37 35.828C46.788 36.186 47.768 36.698 49.32 37.362C51.574 38.196 53.164 39.124 54.096 40.146C55.028 41.168 55.492 42.494 55.492 44.12C55.492 46.01 54.782 47.526 53.364 48.672Z" fill="#020F16"/>
</svg>
