<svg width="77" height="76" viewBox="0 0 77 76" fill="none" xmlns="http://www.w3.org/2000/svg">
<path d="M38.9689 0.000146334C35.8589 0.0101463 33.7029 0.284147 31.0969 0.734147C23.4009 2.07415 21.9989 4.88815 21.9989 10.0741V18.0001H39.9989V22.0001H21.3149H12.6149C7.3429 22.0001 2.7289 24.4841 1.2669 30.4381C-0.385098 37.2721 -0.459098 41.5521 1.2669 48.6881C2.5769 54.0101 5.4629 58.0001 10.7369 58.0001H18.0009V47.7921C18.0009 41.8601 23.3729 36.0001 29.5289 36.0001H44.0009C49.0469 36.0001 54.0009 32.2761 54.0009 27.2461V10.0741C54.0009 5.19615 50.4829 1.54815 45.5649 0.730146C45.6869 0.718146 42.0529 -0.0118537 38.9689 0.000146334ZM29.0009 8.00015C30.6429 8.00015 32.0009 9.35415 32.0009 11.0041C32.0009 12.6701 30.6429 14.0001 29.0009 14.0001C27.3269 14.0001 26.0009 12.6721 26.0009 11.0041C26.0009 9.36015 27.3269 8.00015 29.0009 8.00015Z" fill="#0277BD"/>
<path d="M37.031 76.0001C40.141 75.9901 42.297 75.7161 44.903 75.2661C52.599 73.9261 54.001 71.1121 54.001 65.9261V58.0001H36.001V54.0001H54.687H63.387C68.659 54.0001 73.273 51.5161 74.735 45.5621C76.387 38.7281 76.461 34.4481 74.735 27.3121C73.423 21.9901 70.537 18.0001 65.263 18.0001H57.999V28.2081C57.999 34.1401 52.627 40.0001 46.471 40.0001H31.999C26.953 40.0001 21.999 43.7241 21.999 48.7541V65.9261C21.999 70.8041 25.517 74.4521 30.435 75.2701C30.313 75.2821 33.947 76.0121 37.031 76.0001ZM47.001 68.0001C45.359 68.0001 44.001 66.6461 44.001 64.9961C44.001 63.3301 45.359 62.0001 47.001 62.0001C48.675 62.0001 50.001 63.3281 50.001 64.9961C50.001 66.6401 48.673 68.0001 47.001 68.0001Z" fill="#FFC107"/>
</svg>
