<svg width="92" height="25" viewBox="0 0 92 25" fill="none" xmlns="http://www.w3.org/2000/svg">
<path d="M0 10C0 4.47715 4.47715 0 10 0H82C87.5229 0 92 4.47715 92 10C92 15.5228 87.5229 20 82 20H53.4036C52.0256 20 50.7003 20.5296 49.7018 21.4793C47.628 23.4516 44.372 23.4516 42.2982 21.4793C41.2997 20.5296 39.9744 20 38.5964 20H10C4.47717 20 0 15.5228 0 10Z" fill="#FCF8E8"/>
<path d="M26.1985 16V5.09091H27.8445V9.83168H33.283V5.09091H34.9343V16H33.283V11.2433H27.8445V16H26.1985ZM36.7933 6.50781V5.09091H45.2362V6.50781H41.8324V16H40.1918V6.50781H36.7933ZM47.1018 5.09091H49.0993L52.5724 13.571H52.7002L56.1732 5.09091H58.1707V16H56.6047V8.10582H56.5035L53.2861 15.984H51.9864L48.7691 8.1005H48.6679V16H47.1018V5.09091ZM60.5637 16V5.09091H62.2097V14.5831H67.1529V16H60.5637Z" fill="#313552"/>
</svg>
