<svg width="92" height="25" viewBox="0 0 92 25" fill="none" xmlns="http://www.w3.org/2000/svg">
<path d="M0 10C0 4.47715 4.47715 0 10 0H82C87.5229 0 92 4.47715 92 10C92 15.5228 87.5229 20 82 20H53.4036C52.0256 20 50.7003 20.5296 49.7018 21.4793C47.628 23.4516 44.372 23.4516 42.2982 21.4793C41.2997 20.5296 39.9744 20 38.5964 20H10C4.47717 20 0 15.5228 0 10Z" fill="#FCF8E8"/>
<path d="M22.0271 5.09091H24.0246L27.4976 13.571H27.6255L31.0985 5.09091H33.096V16H31.53V8.10582H31.4288L28.2114 15.984H26.9117L23.6944 8.1005H23.5932V16H22.0271V5.09091ZM36.3679 19.0682C36.13 19.0682 35.9134 19.0487 35.7181 19.0096C35.5228 18.9741 35.3772 18.935 35.2813 18.8924L35.6648 17.5874C35.956 17.6655 36.2152 17.6992 36.4425 17.6886C36.6698 17.6779 36.8704 17.5927 37.0444 17.4329C37.222 17.2731 37.3782 17.0121 37.5132 16.6499L37.7103 16.1065L34.7167 7.81818H36.4212L38.4933 14.1676H38.5785L40.6506 7.81818H42.3605L38.9887 17.092C38.8324 17.5181 38.6336 17.8786 38.3921 18.1733C38.1506 18.4716 37.863 18.6953 37.5292 18.8445C37.1954 18.9936 36.8083 19.0682 36.3679 19.0682ZM49.9351 7.95668C49.8782 7.45241 49.6439 7.06179 49.2319 6.7848C48.82 6.50426 48.3015 6.36399 47.6765 6.36399C47.2291 6.36399 46.842 6.43501 46.5153 6.57706C46.1886 6.71555 45.9347 6.90732 45.7536 7.15234C45.576 7.39382 45.4873 7.66903 45.4873 7.97798C45.4873 8.23722 45.5476 8.46094 45.6684 8.64915C45.7927 8.83736 45.9542 8.99538 46.1531 9.12322C46.3555 9.24751 46.5721 9.35227 46.803 9.4375C47.0338 9.51918 47.2557 9.58665 47.4688 9.63991L48.5341 9.9169C48.8821 10.0021 49.239 10.1175 49.6048 10.2631C49.9706 10.4087 50.3097 10.6005 50.6222 10.8384C50.9347 11.0763 51.1868 11.3711 51.3786 11.7227C51.5739 12.0742 51.6716 12.495 51.6716 12.9851C51.6716 13.603 51.5118 14.1516 51.1922 14.631C50.8761 15.1104 50.4162 15.4886 49.8125 15.7656C49.2124 16.0426 48.4862 16.1811 47.6339 16.1811C46.8172 16.1811 46.1105 16.0515 45.5139 15.7923C44.9173 15.533 44.4503 15.1655 44.113 14.6896C43.7756 14.2102 43.5892 13.642 43.5537 12.9851H45.2049C45.2369 13.3793 45.3647 13.7077 45.5885 13.9705C45.8157 14.2298 46.1052 14.4233 46.4567 14.5511C46.8118 14.6754 47.2007 14.7376 47.6233 14.7376C48.0885 14.7376 48.5022 14.6648 48.8644 14.5192C49.2302 14.37 49.5178 14.1641 49.7273 13.9013C49.9368 13.6349 50.0416 13.3242 50.0416 12.9691C50.0416 12.646 49.9493 12.3814 49.7646 12.1754C49.5835 11.9695 49.3367 11.799 49.0242 11.6641C48.7152 11.5291 48.3655 11.4102 47.9748 11.3072L46.6858 10.9556C45.8122 10.7177 45.1197 10.3679 44.6084 9.90625C44.1005 9.4446 43.8466 8.83381 43.8466 8.07386C43.8466 7.44531 44.0171 6.89666 44.358 6.42791C44.6989 5.95916 45.1606 5.59517 45.7429 5.33594C46.3253 5.07315 46.9823 4.94176 47.7138 4.94176C48.4525 4.94176 49.1041 5.07138 49.6687 5.33061C50.2369 5.58984 50.6843 5.94673 51.0111 6.40128C51.3378 6.85227 51.5082 7.37074 51.5224 7.95668H49.9351ZM57.6495 12.4631H59.2688L60.4087 13.9492L60.9467 14.6097L62.7631 16.9801H61.0799L59.8654 15.3981L59.4499 14.8228L57.6495 12.4631ZM63.1147 10.5455C63.1147 11.7102 62.9016 12.7116 62.4755 13.5497C62.0493 14.3842 61.4652 15.027 60.723 15.478C59.9843 15.9254 59.1445 16.1491 58.2034 16.1491C57.2588 16.1491 56.4154 15.9254 55.6733 15.478C54.9346 15.027 54.3522 14.3825 53.9261 13.5444C53.5 12.7063 53.2869 11.7067 53.2869 10.5455C53.2869 9.38068 53.5 8.38104 53.9261 7.54652C54.3522 6.70845 54.9346 6.0657 55.6733 5.61825C56.4154 5.16726 57.2588 4.94176 58.2034 4.94176C59.1445 4.94176 59.9843 5.16726 60.723 5.61825C61.4652 6.0657 62.0493 6.70845 62.4755 7.54652C62.9016 8.38104 63.1147 9.38068 63.1147 10.5455ZM61.4847 10.5455C61.4847 9.65767 61.3409 8.91016 61.0532 8.30291C60.7691 7.69212 60.3785 7.23047 59.8813 6.91797C59.3877 6.60192 58.8284 6.44389 58.2034 6.44389C57.5749 6.44389 57.0138 6.60192 56.5202 6.91797C56.0266 7.23047 55.636 7.69212 55.3483 8.30291C55.0642 8.91016 54.9222 9.65767 54.9222 10.5455C54.9222 11.4332 55.0642 12.1825 55.3483 12.7933C55.636 13.4006 56.0266 13.8622 56.5202 14.1783C57.0138 14.4908 57.5749 14.647 58.2034 14.647C58.8284 14.647 59.3877 14.4908 59.8813 14.1783C60.3785 13.8622 60.7691 13.4006 61.0532 12.7933C61.3409 12.1825 61.4847 11.4332 61.4847 10.5455ZM65.1668 16V5.09091H66.8127V14.5831H71.7559V16H65.1668Z" fill="#313552"/>
</svg>
