<svg width="92" height="25" viewBox="0 0 92 25" fill="none" xmlns="http://www.w3.org/2000/svg">
<path d="M0 10C0 4.47715 4.47715 0 10 0H82C87.5229 0 92 4.47715 92 10C92 15.5228 87.5229 20 82 20H53.4036C52.0256 20 50.7003 20.5296 49.7018 21.4793C47.628 23.4516 44.372 23.4516 42.2982 21.4793C41.2997 20.5296 39.9744 20 38.5964 20H10C4.47717 20 0 15.5228 0 10Z" fill="#FCF8E8"/>
<path d="M21.3413 16V5.09091H25.2298C26.0785 5.09091 26.7817 5.24538 27.3392 5.55433C27.8967 5.86328 28.314 6.28587 28.591 6.82209C28.868 7.35476 29.0065 7.9549 29.0065 8.62251C29.0065 9.29368 28.8662 9.89737 28.5856 10.4336C28.3087 10.9663 27.8896 11.3888 27.3285 11.7013C26.771 12.0103 26.0697 12.1648 25.2245 12.1648H22.5505V10.7692H25.0754C25.6116 10.7692 26.0466 10.6768 26.3804 10.4922C26.7142 10.304 26.9592 10.0483 27.1155 9.72514C27.2717 9.40199 27.3499 9.03445 27.3499 8.62251C27.3499 8.21058 27.2717 7.84482 27.1155 7.52521C26.9592 7.20561 26.7124 6.95526 26.3751 6.77415C26.0413 6.59304 25.6009 6.50249 25.054 6.50249H22.9873V16H21.3413ZM31.815 19.0682C31.577 19.0682 31.3604 19.0487 31.1651 19.0096C30.9698 18.9741 30.8242 18.935 30.7283 18.8924L31.1118 17.5874C31.403 17.6655 31.6623 17.6992 31.8895 17.6886C32.1168 17.6779 32.3174 17.5927 32.4915 17.4329C32.669 17.2731 32.8253 17.0121 32.9602 16.6499L33.1573 16.1065L30.1637 7.81818H31.8682L33.9403 14.1676H34.0255L36.0976 7.81818H37.8075L34.4357 17.092C34.2795 17.5181 34.0806 17.8786 33.8391 18.1733C33.5976 18.4716 33.31 18.6953 32.9762 18.8445C32.6424 18.9936 32.2553 19.0682 31.815 19.0682ZM43.1236 7.81818V9.09659H38.6545V7.81818H43.1236ZM39.853 5.85795H41.4456V13.5977C41.4456 13.9066 41.4918 14.1392 41.5841 14.2955C41.6765 14.4482 41.7954 14.5529 41.941 14.6097C42.0902 14.663 42.2518 14.6896 42.4258 14.6896C42.5536 14.6896 42.6655 14.6808 42.7613 14.663C42.8572 14.6452 42.9318 14.631 42.9851 14.6204L43.2727 15.9361C43.1804 15.9716 43.049 16.0071 42.8785 16.0426C42.7081 16.0817 42.495 16.103 42.2393 16.1065C41.8203 16.1136 41.4297 16.0391 41.0674 15.8828C40.7052 15.7266 40.4123 15.4851 40.1885 15.1584C39.9648 14.8317 39.853 14.4215 39.853 13.9279V5.85795ZM46.6538 11.142V16H45.0611V5.09091H46.6325V9.14986H46.7337C46.9255 8.70952 47.2185 8.35973 47.6126 8.1005C48.0068 7.84126 48.5217 7.71165 49.1574 7.71165C49.7185 7.71165 50.2085 7.82706 50.6276 8.05788C51.0501 8.28871 51.3768 8.63317 51.6077 9.09126C51.842 9.54581 51.9592 10.114 51.9592 10.7958V16H50.3665V10.9876C50.3665 10.3874 50.2121 9.92223 49.9031 9.59197C49.5942 9.25817 49.1645 9.09126 48.6141 9.09126C48.2376 9.09126 47.9003 9.17116 47.602 9.33097C47.3072 9.49077 47.0746 9.72514 46.9042 10.0341C46.7373 10.3395 46.6538 10.7088 46.6538 11.142ZM57.531 16.1651C56.7639 16.1651 56.0945 15.9893 55.5228 15.6378C54.9511 15.2862 54.5072 14.7944 54.1911 14.1623C53.8751 13.5302 53.717 12.7915 53.717 11.9464C53.717 11.0977 53.8751 10.3555 54.1911 9.71982C54.5072 9.08416 54.9511 8.59055 55.5228 8.23899C56.0945 7.88743 56.7639 7.71165 57.531 7.71165C58.298 7.71165 58.9674 7.88743 59.5391 8.23899C60.1109 8.59055 60.5548 9.08416 60.8708 9.71982C61.1869 10.3555 61.3449 11.0977 61.3449 11.9464C61.3449 12.7915 61.1869 13.5302 60.8708 14.1623C60.5548 14.7944 60.1109 15.2862 59.5391 15.6378C58.9674 15.9893 58.298 16.1651 57.531 16.1651ZM57.5363 14.8281C58.0334 14.8281 58.4454 14.6967 58.7721 14.4339C59.0988 14.1712 59.3403 13.8214 59.4965 13.3846C59.6563 12.9478 59.7362 12.4666 59.7362 11.9411C59.7362 11.419 59.6563 10.9396 59.4965 10.5028C59.3403 10.0625 59.0988 9.70916 58.7721 9.44283C58.4454 9.17649 58.0334 9.04332 57.5363 9.04332C57.0356 9.04332 56.6201 9.17649 56.2898 9.44283C55.9631 9.70916 55.7199 10.0625 55.5601 10.5028C55.4038 10.9396 55.3257 11.419 55.3257 11.9411C55.3257 12.4666 55.4038 12.9478 55.5601 13.3846C55.7199 13.8214 55.9631 14.1712 56.2898 14.4339C56.6201 14.6967 57.0356 14.8281 57.5363 14.8281ZM64.7154 11.142V16H63.1227V7.81818H64.6514V9.14986H64.7526C64.9409 8.71662 65.2356 8.36861 65.6369 8.10582C66.0417 7.84304 66.5513 7.71165 67.1656 7.71165C67.7232 7.71165 68.2114 7.82884 68.6305 8.06321C69.0495 8.29403 69.3744 8.63849 69.6053 9.09659C69.8361 9.55469 69.9515 10.1211 69.9515 10.7958V16H68.3588V10.9876C68.3588 10.3945 68.2043 9.93111 67.8954 9.5973C67.5864 9.25994 67.1621 9.09126 66.6223 9.09126C66.253 9.09126 65.9245 9.17116 65.6369 9.33097C65.3528 9.49077 65.1273 9.72514 64.9604 10.0341C64.797 10.3395 64.7154 10.7088 64.7154 11.142Z" fill="#313552"/>
</svg>
