<svg width="92" height="25" viewBox="0 0 92 25" fill="none" xmlns="http://www.w3.org/2000/svg">
<path d="M0 10C0 4.47715 4.47715 0 10 0H82C87.5229 0 92 4.47715 92 10C92 15.5228 87.5229 20 82 20H53.4036C52.0256 20 50.7003 20.5296 49.7018 21.4793C47.628 23.4516 44.372 23.4516 42.2982 21.4793C41.2997 20.5296 39.9744 20 38.5964 20H10C4.47717 20 0 15.5228 0 10Z" fill="#FCF8E8"/>
<path d="M13.036 16H11.2889L15.2147 5.09091H17.1163L21.0421 16H19.2949L16.2108 7.07244H16.1255L13.036 16ZM13.329 11.728H18.9966V13.1129H13.329V11.728ZM25.4206 16.1598C24.7601 16.1598 24.1706 15.9911 23.6522 15.6538C23.1373 15.3129 22.7324 14.8281 22.4377 14.1996C22.1465 13.5675 22.0009 12.8093 22.0009 11.9251C22.0009 11.0408 22.1483 10.2844 22.443 9.65589C22.7413 9.02734 23.1497 8.54616 23.6681 8.21236C24.1866 7.87855 24.7743 7.71165 25.4313 7.71165C25.9391 7.71165 26.3475 7.79688 26.6564 7.96733C26.9689 8.13423 27.2104 8.32955 27.3809 8.55327C27.5549 8.77699 27.6898 8.97408 27.7857 9.14453H27.8816V5.09091H29.4743V16H27.9189V14.7269H27.7857C27.6898 14.9009 27.5513 15.0998 27.3702 15.3235C27.1926 15.5472 26.9476 15.7425 26.6351 15.9094C26.3226 16.0763 25.9178 16.1598 25.4206 16.1598ZM25.7722 14.8015C26.2303 14.8015 26.6174 14.6808 26.9334 14.4393C27.253 14.1942 27.4945 13.8551 27.6578 13.4219C27.8248 12.9886 27.9082 12.4844 27.9082 11.9091C27.9082 11.3409 27.8265 10.8437 27.6632 10.4176C27.4998 9.99148 27.2601 9.65945 26.9441 9.42152C26.628 9.18359 26.2374 9.06463 25.7722 9.06463C25.2928 9.06463 24.8933 9.18892 24.5737 9.4375C24.2541 9.68608 24.0126 10.0252 23.8493 10.4549C23.6895 10.8846 23.6096 11.3693 23.6096 11.9091C23.6096 12.456 23.6912 12.9478 23.8546 13.3846C24.0179 13.8214 24.2594 14.1676 24.579 14.4233C24.9022 14.6754 25.2999 14.8015 25.7722 14.8015ZM35.1938 16.1651C34.4268 16.1651 33.7574 15.9893 33.1856 15.6378C32.6139 15.2862 32.17 14.7944 31.854 14.1623C31.5379 13.5302 31.3799 12.7915 31.3799 11.9464C31.3799 11.0977 31.5379 10.3555 31.854 9.71982C32.17 9.08416 32.6139 8.59055 33.1856 8.23899C33.7574 7.88743 34.4268 7.71165 35.1938 7.71165C35.9608 7.71165 36.6302 7.88743 37.202 8.23899C37.7737 8.59055 38.2176 9.08416 38.5336 9.71982C38.8497 10.3555 39.0077 11.0977 39.0077 11.9464C39.0077 12.7915 38.8497 13.5302 38.5336 14.1623C38.2176 14.7944 37.7737 15.2862 37.202 15.6378C36.6302 15.9893 35.9608 16.1651 35.1938 16.1651ZM35.1991 14.8281C35.6963 14.8281 36.1082 14.6967 36.4349 14.4339C36.7616 14.1712 37.0031 13.8214 37.1594 13.3846C37.3192 12.9478 37.3991 12.4666 37.3991 11.9411C37.3991 11.419 37.3192 10.9396 37.1594 10.5028C37.0031 10.0625 36.7616 9.70916 36.4349 9.44283C36.1082 9.17649 35.6963 9.04332 35.1991 9.04332C34.6984 9.04332 34.2829 9.17649 33.9527 9.44283C33.626 9.70916 33.3827 10.0625 33.2229 10.5028C33.0667 10.9396 32.9885 11.419 32.9885 11.9411C32.9885 12.4666 33.0667 12.9478 33.2229 13.3846C33.3827 13.8214 33.626 14.1712 33.9527 14.4339C34.2829 14.6967 34.6984 14.8281 35.1991 14.8281ZM40.9134 16V5.09091H42.506V9.14453H42.6019C42.6942 8.97408 42.8274 8.77699 43.0014 8.55327C43.1754 8.32955 43.4169 8.13423 43.7259 7.96733C44.0348 7.79688 44.4432 7.71165 44.951 7.71165C45.6115 7.71165 46.201 7.87855 46.7195 8.21236C47.2379 8.54616 47.6445 9.02734 47.9393 9.65589C48.2376 10.2844 48.3867 11.0408 48.3867 11.9251C48.3867 12.8093 48.2393 13.5675 47.9446 14.1996C47.6499 14.8281 47.245 15.3129 46.7301 15.6538C46.2152 15.9911 45.6275 16.1598 44.967 16.1598C44.4698 16.1598 44.0632 16.0763 43.7472 15.9094C43.4347 15.7425 43.1896 15.5472 43.0121 15.3235C42.8345 15.0998 42.6978 14.9009 42.6019 14.7269H42.4688V16H40.9134ZM42.4741 11.9091C42.4741 12.4844 42.5575 12.9886 42.7244 13.4219C42.8913 13.8551 43.1328 14.1942 43.4489 14.4393C43.7649 14.6808 44.152 14.8015 44.6101 14.8015C45.0859 14.8015 45.4837 14.6754 45.8033 14.4233C46.1229 14.1676 46.3643 13.8214 46.5277 13.3846C46.6946 12.9478 46.7781 12.456 46.7781 11.9091C46.7781 11.3693 46.6964 10.8846 46.533 10.4549C46.3732 10.0252 46.1317 9.68608 45.8086 9.4375C45.489 9.18892 45.0895 9.06463 44.6101 9.06463C44.1484 9.06463 43.7578 9.18359 43.4382 9.42152C43.1222 9.65945 42.8825 9.99148 42.7191 10.4176C42.5558 10.8437 42.4741 11.3409 42.4741 11.9091ZM53.7014 16.1651C52.8953 16.1651 52.2011 15.9929 51.6187 15.6484C51.0399 15.3004 50.5924 14.8121 50.2764 14.1836C49.9639 13.5515 49.8076 12.8111 49.8076 11.9624C49.8076 11.1243 49.9639 10.3857 50.2764 9.74645C50.5924 9.10724 51.0328 8.60831 51.5974 8.24964C52.1656 7.89098 52.8296 7.71165 53.5896 7.71165C54.0512 7.71165 54.4987 7.788 54.9319 7.9407C55.3651 8.09339 55.754 8.3331 56.0985 8.6598C56.4429 8.98651 56.7146 9.41087 56.9134 9.93288C57.1123 10.4513 57.2117 11.0817 57.2117 11.8239V12.3885H50.7078V11.1953H55.651C55.651 10.7763 55.5658 10.4052 55.3953 10.082C55.2249 9.75533 54.9852 9.49787 54.6762 9.30966C54.3708 9.12145 54.0122 9.02734 53.6002 9.02734C53.1528 9.02734 52.7622 9.13743 52.4284 9.3576C52.0981 9.57422 51.8424 9.85831 51.6613 10.2099C51.4838 10.5579 51.395 10.9361 51.395 11.3445V12.2766C51.395 12.8235 51.4909 13.2887 51.6826 13.6722C51.8779 14.0558 52.1496 14.3487 52.4976 14.5511C52.8456 14.75 53.2522 14.8494 53.7174 14.8494C54.0193 14.8494 54.2945 14.8068 54.5431 14.7216C54.7916 14.6328 55.0065 14.5014 55.1876 14.3274C55.3687 14.1534 55.5072 13.9386 55.6031 13.6829L57.1105 13.9545C56.9898 14.3984 56.7732 14.7873 56.4607 15.1211C56.1517 15.4513 55.7629 15.7088 55.2941 15.8935C54.8289 16.0746 54.298 16.1651 53.7014 16.1651ZM64.2217 5.09091L66.8318 9.3576H66.917L69.5271 5.09091H71.434L68.0356 10.5455L71.4553 16H69.5377L66.917 11.7919H66.8318L64.211 16H62.2934L65.7718 10.5455L62.3147 5.09091H64.2217ZM76.5983 16H73.0667V5.09091H76.7101C77.779 5.09091 78.697 5.3093 79.464 5.74609C80.2311 6.17933 80.8188 6.80256 81.2272 7.61577C81.6391 8.42543 81.8451 9.39666 81.8451 10.5295C81.8451 11.6658 81.6373 12.6424 81.2219 13.4592C80.8099 14.2759 80.2133 14.9045 79.4321 15.3448C78.6508 15.7816 77.7062 16 76.5983 16ZM74.7126 14.5618H76.5077C77.3387 14.5618 78.0294 14.4055 78.5798 14.093C79.1302 13.777 79.5422 13.3207 79.8156 12.7241C80.089 12.1239 80.2258 11.3924 80.2258 10.5295C80.2258 9.67365 80.089 8.94744 79.8156 8.35085C79.5457 7.75426 79.1427 7.30149 78.6064 6.99254C78.0702 6.68359 77.4044 6.52912 76.6089 6.52912H74.7126V14.5618Z" fill="#313552"/>
</svg>
