<svg width="92" height="25" viewBox="0 0 92 25" fill="none" xmlns="http://www.w3.org/2000/svg">
<path d="M0 10C0 4.47715 4.47715 0 10 0H82C87.5229 0 92 4.47715 92 10C92 15.5228 87.5229 20 82 20H53.4036C52.0256 20 50.7003 20.5296 49.7018 21.4793C47.628 23.4516 44.372 23.4516 42.2982 21.4793C41.2997 20.5296 39.9744 20 38.5964 20H10C4.47717 20 0 15.5228 0 10Z" fill="#FCF8E8"/>
<path d="M8.19851 16V5.09091H12.087C12.9357 5.09091 13.6388 5.24538 14.1964 5.55433C14.7539 5.86328 15.1712 6.28587 15.4482 6.82209C15.7251 7.35476 15.8636 7.9549 15.8636 8.62251C15.8636 9.29368 15.7234 9.89737 15.4428 10.4336C15.1658 10.9663 14.7468 11.3888 14.1857 11.7013C13.6282 12.0103 12.9268 12.1648 12.0817 12.1648H9.40767V10.7692H11.9325C12.4688 10.7692 12.9038 10.6768 13.2376 10.4922C13.5714 10.304 13.8164 10.0483 13.9727 9.72514C14.1289 9.40199 14.207 9.03445 14.207 8.62251C14.207 8.21058 14.1289 7.84482 13.9727 7.52521C13.8164 7.20561 13.5696 6.95526 13.2322 6.77415C12.8984 6.59304 12.4581 6.50249 11.9112 6.50249H9.84446V16H8.19851ZM19.2581 11.142V16H17.6654V5.09091H19.2368V9.14986H19.338C19.5297 8.70952 19.8227 8.35973 20.2169 8.1005C20.6111 7.84126 21.126 7.71165 21.7616 7.71165C22.3227 7.71165 22.8128 7.82706 23.2318 8.05788C23.6544 8.28871 23.9811 8.63317 24.2119 9.09126C24.4463 9.54581 24.5635 10.114 24.5635 10.7958V16H22.9708V10.9876C22.9708 10.3874 22.8163 9.92223 22.5074 9.59197C22.1984 9.25817 21.7687 9.09126 21.2183 9.09126C20.8419 9.09126 20.5045 9.17116 20.2062 9.33097C19.9115 9.49077 19.6789 9.72514 19.5084 10.0341C19.3415 10.3395 19.2581 10.7088 19.2581 11.142ZM30.1352 16.1651C29.3682 16.1651 28.6988 15.9893 28.127 15.6378C27.5553 15.2862 27.1114 14.7944 26.7954 14.1623C26.4793 13.5302 26.3213 12.7915 26.3213 11.9464C26.3213 11.0977 26.4793 10.3555 26.7954 9.71982C27.1114 9.08416 27.5553 8.59055 28.127 8.23899C28.6988 7.88743 29.3682 7.71165 30.1352 7.71165C30.9023 7.71165 31.5716 7.88743 32.1434 8.23899C32.7151 8.59055 33.159 9.08416 33.4751 9.71982C33.7911 10.3555 33.9491 11.0977 33.9491 11.9464C33.9491 12.7915 33.7911 13.5302 33.4751 14.1623C33.159 14.7944 32.7151 15.2862 32.1434 15.6378C31.5716 15.9893 30.9023 16.1651 30.1352 16.1651ZM30.1405 14.8281C30.6377 14.8281 31.0496 14.6967 31.3763 14.4339C31.703 14.1712 31.9445 13.8214 32.1008 13.3846C32.2606 12.9478 32.3405 12.4666 32.3405 11.9411C32.3405 11.419 32.2606 10.9396 32.1008 10.5028C31.9445 10.0625 31.703 9.70916 31.3763 9.44283C31.0496 9.17649 30.6377 9.04332 30.1405 9.04332C29.6398 9.04332 29.2243 9.17649 28.8941 9.44283C28.5674 9.70916 28.3241 10.0625 28.1643 10.5028C28.0081 10.9396 27.93 11.419 27.93 11.9411C27.93 12.4666 28.0081 12.9478 28.1643 13.3846C28.3241 13.8214 28.5674 14.1712 28.8941 14.4339C29.2243 14.6967 29.6398 14.8281 30.1405 14.8281ZM39.5462 7.81818V9.09659H35.0771V7.81818H39.5462ZM36.2756 5.85795H37.8683V13.5977C37.8683 13.9066 37.9144 14.1392 38.0067 14.2955C38.0991 14.4482 38.218 14.5529 38.3636 14.6097C38.5128 14.663 38.6744 14.6896 38.8484 14.6896C38.9762 14.6896 39.0881 14.6808 39.1839 14.663C39.2798 14.6452 39.3544 14.631 39.4077 14.6204L39.6953 15.9361C39.603 15.9716 39.4716 16.0071 39.3011 16.0426C39.1307 16.0817 38.9176 16.103 38.6619 16.1065C38.2429 16.1136 37.8523 16.0391 37.4901 15.8828C37.1278 15.7266 36.8349 15.4851 36.6112 15.1584C36.3874 14.8317 36.2756 14.4215 36.2756 13.9279V5.85795ZM44.6665 16.1651C43.8994 16.1651 43.23 15.9893 42.6583 15.6378C42.0866 15.2862 41.6427 14.7944 41.3266 14.1623C41.0106 13.5302 40.8525 12.7915 40.8525 11.9464C40.8525 11.0977 41.0106 10.3555 41.3266 9.71982C41.6427 9.08416 42.0866 8.59055 42.6583 8.23899C43.23 7.88743 43.8994 7.71165 44.6665 7.71165C45.4335 7.71165 46.1029 7.88743 46.6746 8.23899C47.2464 8.59055 47.6903 9.08416 48.0063 9.71982C48.3224 10.3555 48.4804 11.0977 48.4804 11.9464C48.4804 12.7915 48.3224 13.5302 48.0063 14.1623C47.6903 14.7944 47.2464 15.2862 46.6746 15.6378C46.1029 15.9893 45.4335 16.1651 44.6665 16.1651ZM44.6718 14.8281C45.1689 14.8281 45.5809 14.6967 45.9076 14.4339C46.2343 14.1712 46.4758 13.8214 46.632 13.3846C46.7918 12.9478 46.8717 12.4666 46.8717 11.9411C46.8717 11.419 46.7918 10.9396 46.632 10.5028C46.4758 10.0625 46.2343 9.70916 45.9076 9.44283C45.5809 9.17649 45.1689 9.04332 44.6718 9.04332C44.1711 9.04332 43.7556 9.17649 43.4253 9.44283C43.0986 9.70916 42.8554 10.0625 42.6956 10.5028C42.5393 10.9396 42.4612 11.419 42.4612 11.9411C42.4612 12.4666 42.5393 12.9478 42.6956 13.3846C42.8554 13.8214 43.0986 14.1712 43.4253 14.4339C43.7556 14.6967 44.1711 14.8281 44.6718 14.8281ZM56.3892 9.8157L54.9457 10.0714C54.8853 9.88672 54.7894 9.71094 54.658 9.54403C54.5302 9.37713 54.3562 9.24041 54.136 9.13388C53.9158 9.02734 53.6406 8.97408 53.3104 8.97408C52.8594 8.97408 52.483 9.07528 52.1811 9.2777C51.8793 9.47656 51.7283 9.73402 51.7283 10.0501C51.7283 10.3235 51.8295 10.5437 52.032 10.7106C52.2344 10.8775 52.5611 11.0142 53.0121 11.1207L54.3118 11.419C55.0646 11.593 55.6257 11.8612 55.995 12.2234C56.3643 12.5856 56.549 13.0561 56.549 13.6349C56.549 14.125 56.407 14.5618 56.1229 14.9453C55.8423 15.3253 55.4499 15.6236 54.9457 15.8402C54.445 16.0568 53.8643 16.1651 53.2038 16.1651C52.2876 16.1651 51.5401 15.9698 50.9613 15.5792C50.3825 15.185 50.0273 14.6257 49.896 13.9013L51.4354 13.6669C51.5313 14.0682 51.7283 14.3718 52.0266 14.5778C52.3249 14.7802 52.7138 14.8814 53.1932 14.8814C53.7152 14.8814 54.1325 14.7731 54.445 14.5565C54.7575 14.3363 54.9137 14.0682 54.9137 13.7521C54.9137 13.4964 54.8178 13.2816 54.6261 13.1076C54.4379 12.9336 54.1484 12.8022 53.7578 12.7134L52.3729 12.4098C51.6094 12.2358 51.0447 11.9588 50.679 11.5788C50.3168 11.1989 50.1357 10.7177 50.1357 10.1353C50.1357 9.65234 50.2706 9.22976 50.5405 8.86754C50.8104 8.50533 51.1832 8.22301 51.6591 8.0206C52.1349 7.81463 52.68 7.71165 53.2944 7.71165C54.1786 7.71165 54.8746 7.90341 55.3825 8.28693C55.8903 8.6669 56.2259 9.17649 56.3892 9.8157ZM59.8928 11.142V16H58.3002V5.09091H59.8715V9.14986H59.9727C60.1645 8.70952 60.4575 8.35973 60.8517 8.1005C61.2458 7.84126 61.7607 7.71165 62.3964 7.71165C62.9575 7.71165 63.4475 7.82706 63.8666 8.05788C64.2892 8.28871 64.6159 8.63317 64.8467 9.09126C65.0811 9.54581 65.1982 10.114 65.1982 10.7958V16H63.6056V10.9876C63.6056 10.3874 63.4511 9.92223 63.1421 9.59197C62.8332 9.25817 62.4035 9.09126 61.8531 9.09126C61.4767 9.09126 61.1393 9.17116 60.841 9.33097C60.5463 9.49077 60.3137 9.72514 60.1432 10.0341C59.9763 10.3395 59.8928 10.7088 59.8928 11.142ZM70.77 16.1651C70.0029 16.1651 69.3335 15.9893 68.7618 15.6378C68.1901 15.2862 67.7462 14.7944 67.4301 14.1623C67.1141 13.5302 66.9561 12.7915 66.9561 11.9464C66.9561 11.0977 67.1141 10.3555 67.4301 9.71982C67.7462 9.08416 68.1901 8.59055 68.7618 8.23899C69.3335 7.88743 70.0029 7.71165 70.77 7.71165C71.537 7.71165 72.2064 7.88743 72.7781 8.23899C73.3499 8.59055 73.7938 9.08416 74.1098 9.71982C74.4259 10.3555 74.5839 11.0977 74.5839 11.9464C74.5839 12.7915 74.4259 13.5302 74.1098 14.1623C73.7938 14.7944 73.3499 15.2862 72.7781 15.6378C72.2064 15.9893 71.537 16.1651 70.77 16.1651ZM70.7753 14.8281C71.2725 14.8281 71.6844 14.6967 72.0111 14.4339C72.3378 14.1712 72.5793 13.8214 72.7355 13.3846C72.8953 12.9478 72.9752 12.4666 72.9752 11.9411C72.9752 11.419 72.8953 10.9396 72.7355 10.5028C72.5793 10.0625 72.3378 9.70916 72.0111 9.44283C71.6844 9.17649 71.2725 9.04332 70.7753 9.04332C70.2746 9.04332 69.8591 9.17649 69.5289 9.44283C69.2021 9.70916 68.9589 10.0625 68.7991 10.5028C68.6428 10.9396 68.5647 11.419 68.5647 11.9411C68.5647 12.4666 68.6428 12.9478 68.7991 13.3846C68.9589 13.8214 69.2021 14.1712 69.5289 14.4339C69.8591 14.6967 70.2746 14.8281 70.7753 14.8281ZM76.3617 19.0682V7.81818H77.9171V9.14453H78.0502C78.1426 8.97408 78.2757 8.77699 78.4498 8.55327C78.6238 8.32955 78.8652 8.13423 79.1742 7.96733C79.4831 7.79688 79.8915 7.71165 80.3993 7.71165C81.0598 7.71165 81.6493 7.87855 82.1678 8.21236C82.6863 8.54616 83.0929 9.02734 83.3876 9.65589C83.6859 10.2844 83.8351 11.0408 83.8351 11.9251C83.8351 12.8093 83.6877 13.5675 83.3929 14.1996C83.0982 14.8281 82.6934 15.3129 82.1784 15.6538C81.6635 15.9911 81.0758 16.1598 80.4153 16.1598C79.9181 16.1598 79.5115 16.0763 79.1955 15.9094C78.883 15.7425 78.638 15.5472 78.4604 15.3235C78.2828 15.0998 78.1461 14.9009 78.0502 14.7269H77.9544V19.0682H76.3617ZM77.9224 11.9091C77.9224 12.4844 78.0059 12.9886 78.1728 13.4219C78.3397 13.8551 78.5811 14.1942 78.8972 14.4393C79.2132 14.6808 79.6003 14.8015 80.0584 14.8015C80.5343 14.8015 80.932 14.6754 81.2516 14.4233C81.5712 14.1676 81.8127 13.8214 81.976 13.3846C82.1429 12.9478 82.2264 12.456 82.2264 11.9091C82.2264 11.3693 82.1447 10.8846 81.9814 10.4549C81.8216 10.0252 81.5801 9.68608 81.2569 9.4375C80.9373 9.18892 80.5378 9.06463 80.0584 9.06463C79.5968 9.06463 79.2061 9.18359 78.8865 9.42152C78.5705 9.65945 78.3308 9.99148 78.1674 10.4176C78.0041 10.8437 77.9224 11.3409 77.9224 11.9091Z" fill="#313552"/>
</svg>
