<svg width="92" height="25" viewBox="0 0 92 25" fill="none" xmlns="http://www.w3.org/2000/svg">
<path d="M0 10C0 4.47715 4.47715 0 10 0H82C87.5229 0 92 4.47715 92 10C92 15.5228 87.5229 20 82 20H53.4036C52.0256 20 50.7003 20.5296 49.7018 21.4793C47.628 23.4516 44.372 23.4516 42.2982 21.4793C41.2997 20.5296 39.9744 20 38.5964 20H10C4.47717 20 0 15.5228 0 10Z" fill="#FCF8E8"/>
<path d="M25.1985 16V5.09091H31.9634V6.50781H26.8445V9.83168H31.4787V11.2433H26.8445V16H25.1985ZM33.8597 16V7.81818H35.4524V16H33.8597ZM34.6641 6.55575C34.3871 6.55575 34.1491 6.46342 33.9503 6.27876C33.755 6.09055 33.6573 5.86683 33.6573 5.6076C33.6573 5.34482 33.755 5.12109 33.9503 4.93643C34.1491 4.74822 34.3871 4.65412 34.6641 4.65412C34.9411 4.65412 35.1772 4.74822 35.3725 4.93643C35.5714 5.12109 35.6708 5.34482 35.6708 5.6076C35.6708 5.86683 35.5714 6.09055 35.3725 6.27876C35.1772 6.46342 34.9411 6.55575 34.6641 6.55575ZM41.0255 19.2386C40.3756 19.2386 39.8163 19.1534 39.3476 18.983C38.8824 18.8125 38.5024 18.587 38.2077 18.3065C37.9129 18.0259 37.6927 17.7188 37.5471 17.3849L38.9161 16.8203C39.012 16.9766 39.1398 17.1417 39.2996 17.3157C39.463 17.4933 39.6831 17.6442 39.9601 17.7685C40.2407 17.8928 40.6011 17.9549 41.0415 17.9549C41.6452 17.9549 42.1441 17.8075 42.5383 17.5128C42.9324 17.2216 43.1295 16.7564 43.1295 16.1172V14.5085H43.0283C42.9324 14.6825 42.7939 14.8761 42.6128 15.0891C42.4353 15.3022 42.1903 15.4869 41.8778 15.6431C41.5653 15.7994 41.1586 15.8775 40.6579 15.8775C40.0116 15.8775 39.4292 15.7266 38.9108 15.4247C38.3959 15.1193 37.9875 14.6701 37.6856 14.0771C37.3873 13.4805 37.2382 12.7472 37.2382 11.8771C37.2382 11.0071 37.3856 10.2614 37.6803 9.63991C37.9786 9.01847 38.387 8.54261 38.9055 8.21236C39.4239 7.87855 40.0116 7.71165 40.6686 7.71165C41.1764 7.71165 41.5866 7.79688 41.8991 7.96733C42.2116 8.13423 42.4548 8.32955 42.6288 8.55327C42.8064 8.77699 42.9431 8.97408 43.039 9.14453H43.1562V7.81818H44.7169V16.1811C44.7169 16.8842 44.5535 17.4613 44.2268 17.9123C43.9001 18.3633 43.458 18.6971 42.9005 18.9137C42.3465 19.1303 41.7215 19.2386 41.0255 19.2386ZM41.0095 14.5565C41.4676 14.5565 41.8547 14.4499 42.1707 14.2369C42.4903 14.0202 42.7318 13.7113 42.8952 13.31C43.0621 12.9052 43.1455 12.4205 43.1455 11.8558C43.1455 11.3054 43.0638 10.8207 42.9005 10.4016C42.7371 9.9826 42.4974 9.65589 42.1814 9.42152C41.8653 9.18359 41.4747 9.06463 41.0095 9.06463C40.5301 9.06463 40.1306 9.18892 39.811 9.4375C39.4914 9.68253 39.2499 10.0163 39.0866 10.4389C38.9268 10.8615 38.8469 11.3338 38.8469 11.8558C38.8469 12.392 38.9285 12.8626 39.0919 13.2674C39.2552 13.6722 39.4967 13.9883 39.8163 14.2156C40.1395 14.4428 40.5372 14.5565 41.0095 14.5565ZM46.8529 16V7.81818H48.3817V9.14986H48.4829C48.6533 8.69886 48.9321 8.3473 49.3192 8.09517C49.7062 7.83949 50.1697 7.71165 50.7094 7.71165C51.2563 7.71165 51.7144 7.83949 52.0837 8.09517C52.4566 8.35085 52.7318 8.70241 52.9094 9.14986H52.9946C53.1899 8.71307 53.5006 8.36506 53.9268 8.10582C54.3529 7.84304 54.8607 7.71165 55.4502 7.71165C56.1924 7.71165 56.7979 7.94425 57.2666 8.40945C57.7389 8.87464 57.9751 9.57599 57.9751 10.5135V16H56.3824V10.6626C56.3824 10.1087 56.2314 9.70739 55.9296 9.45881C55.6278 9.21023 55.2673 9.08594 54.8483 9.08594C54.3298 9.08594 53.9268 9.24574 53.6391 9.56534C53.3515 9.88139 53.2077 10.288 53.2077 10.7852V16H51.6203V10.5614C51.6203 10.1175 51.4818 9.76065 51.2048 9.49077C50.9278 9.22088 50.5674 9.08594 50.1235 9.08594C49.8216 9.08594 49.5429 9.16584 49.2872 9.32564C49.0351 9.48189 48.8309 9.70028 48.6746 9.98082C48.5219 10.2614 48.4456 10.5863 48.4456 10.9556V16H46.8529ZM62.4908 16.1811C61.9723 16.1811 61.5036 16.0852 61.0845 15.8935C60.6655 15.6982 60.3335 15.4158 60.0884 15.0465C59.8469 14.6772 59.7262 14.2244 59.7262 13.6882C59.7262 13.2266 59.815 12.8466 59.9925 12.5483C60.1701 12.25 60.4098 12.0138 60.7116 11.8398C61.0135 11.6658 61.3509 11.5344 61.7237 11.4457C62.0966 11.3569 62.4766 11.2894 62.8636 11.2433C63.3537 11.1864 63.7514 11.1403 64.0568 11.1048C64.3622 11.0657 64.5842 11.0036 64.7227 10.9183C64.8612 10.8331 64.9304 10.6946 64.9304 10.5028V10.4656C64.9304 10.0004 64.799 9.63991 64.5362 9.38423C64.277 9.12855 63.8899 9.00071 63.375 9.00071C62.8388 9.00071 62.4162 9.11967 62.1072 9.3576C61.8018 9.59197 61.5906 9.85298 61.4734 10.1406L59.9766 9.79972C60.1541 9.30256 60.4134 8.90128 60.7543 8.59588C61.0987 8.28693 61.4947 8.06321 61.9421 7.92472C62.3896 7.78267 62.8601 7.71165 63.3537 7.71165C63.6804 7.71165 64.0266 7.75071 64.3924 7.82884C64.7617 7.90341 65.1062 8.0419 65.4258 8.24432C65.7489 8.44673 66.0135 8.73615 66.2195 9.11257C66.4254 9.48544 66.5284 9.97017 66.5284 10.5668V16H64.973V14.8814H64.9091C64.8061 15.0874 64.6516 15.2898 64.4457 15.4886C64.2397 15.6875 63.9751 15.8526 63.652 15.984C63.3288 16.1154 62.9418 16.1811 62.4908 16.1811ZM62.837 14.9027C63.2773 14.9027 63.6538 14.8157 63.9663 14.6417C64.2823 14.4677 64.522 14.2404 64.6854 13.9599C64.8523 13.6758 64.9357 13.3722 64.9357 13.049V11.9943C64.8789 12.0511 64.7688 12.1044 64.6055 12.1541C64.4457 12.2003 64.2628 12.2411 64.0568 12.2766C63.8509 12.3086 63.6502 12.3388 63.4549 12.3672C63.2596 12.392 63.0962 12.4134 62.9648 12.4311C62.6559 12.4702 62.3736 12.5359 62.1179 12.6282C61.8658 12.7205 61.6634 12.8537 61.5107 13.0277C61.3615 13.1982 61.2869 13.4254 61.2869 13.7095C61.2869 14.1037 61.4325 14.402 61.7237 14.6044C62.0149 14.8033 62.386 14.9027 62.837 14.9027Z" fill="#313552"/>
</svg>
