<svg width="92" height="25" viewBox="0 0 92 25" fill="none" xmlns="http://www.w3.org/2000/svg">
<path d="M0 10C0 4.47715 4.47715 0 10 0H82C87.5229 0 92 4.47715 92 10C92 15.5228 87.5229 20 82 20H53.4036C52.0256 20 50.7003 20.5296 49.7018 21.4793C47.628 23.4516 44.372 23.4516 42.2982 21.4793C41.2997 20.5296 39.9744 20 38.5964 20H10C4.47717 20 0 15.5228 0 10Z" fill="#FCF8E8"/>
<path d="M41.2307 8.63849H39.5687C39.5048 8.28338 39.3859 7.97088 39.2118 7.70099C39.0378 7.43111 38.8248 7.20206 38.5726 7.01385C38.3205 6.82564 38.0382 6.68359 37.7257 6.58771C37.4167 6.49183 37.0883 6.44389 36.7403 6.44389C36.1117 6.44389 35.5489 6.60192 35.0517 6.91797C34.5581 7.23402 34.1675 7.69744 33.8798 8.30824C33.5957 8.91903 33.4537 9.66477 33.4537 10.5455C33.4537 11.4332 33.5957 12.1825 33.8798 12.7933C34.1675 13.4041 34.5599 13.8658 35.057 14.1783C35.5542 14.4908 36.1135 14.647 36.7349 14.647C37.0794 14.647 37.4061 14.6009 37.715 14.5085C38.0275 14.4126 38.3099 14.2724 38.562 14.0877C38.8141 13.9031 39.0272 13.6776 39.2012 13.4112C39.3788 13.1413 39.5013 12.8324 39.5687 12.4844L41.2307 12.4897C41.1419 13.0259 40.9697 13.5195 40.714 13.9705C40.4618 14.418 40.1369 14.805 39.7392 15.1317C39.345 15.4549 38.894 15.7053 38.3862 15.8828C37.8784 16.0604 37.3244 16.1491 36.7243 16.1491C35.7797 16.1491 34.9381 15.9254 34.1994 15.478C33.4608 15.027 32.8784 14.3825 32.4523 13.5444C32.0297 12.7063 31.8184 11.7067 31.8184 10.5455C31.8184 9.38068 32.0314 8.38104 32.4576 7.54652C32.8837 6.70845 33.4661 6.0657 34.2047 5.61825C34.9434 5.16726 35.7832 4.94176 36.7243 4.94176C37.3031 4.94176 37.8429 5.02521 38.3436 5.19212C38.8479 5.35547 39.3006 5.59695 39.7019 5.91655C40.1032 6.2326 40.4352 6.61967 40.698 7.07777C40.9608 7.53232 41.1383 8.05256 41.2307 8.63849ZM49.1501 7.95668C49.0933 7.45241 48.859 7.06179 48.447 6.7848C48.0351 6.50426 47.5166 6.36399 46.8916 6.36399C46.4442 6.36399 46.0571 6.43501 45.7304 6.57706C45.4037 6.71555 45.1498 6.90732 44.9687 7.15234C44.7911 7.39382 44.7023 7.66903 44.7023 7.97798C44.7023 8.23722 44.7627 8.46094 44.8835 8.64915C45.0077 8.83736 45.1693 8.99538 45.3682 9.12322C45.5706 9.24751 45.7872 9.35227 46.018 9.4375C46.2489 9.51918 46.4708 9.58665 46.6839 9.63991L47.7492 9.9169C48.0972 10.0021 48.4541 10.1175 48.8199 10.2631C49.1857 10.4087 49.5248 10.6005 49.8373 10.8384C50.1498 11.0763 50.4019 11.3711 50.5937 11.7227C50.789 12.0742 50.8867 12.495 50.8867 12.9851C50.8867 13.603 50.7269 14.1516 50.4072 14.631C50.0912 15.1104 49.6313 15.4886 49.0276 15.7656C48.4275 16.0426 47.7013 16.1811 46.849 16.1811C46.0322 16.1811 45.3256 16.0515 44.729 15.7923C44.1324 15.533 43.6654 15.1655 43.3281 14.6896C42.9907 14.2102 42.8043 13.642 42.7688 12.9851H44.42C44.452 13.3793 44.5798 13.7077 44.8036 13.9705C45.0308 14.2298 45.3202 14.4233 45.6718 14.5511C46.0269 14.6754 46.4158 14.7376 46.8384 14.7376C47.3036 14.7376 47.7173 14.6648 48.0795 14.5192C48.4452 14.37 48.7329 14.1641 48.9424 13.9013C49.1519 13.6349 49.2567 13.3242 49.2567 12.9691C49.2567 12.646 49.1644 12.3814 48.9797 12.1754C48.7986 11.9695 48.5518 11.799 48.2393 11.6641C47.9303 11.5291 47.5805 11.4102 47.1899 11.3072L45.9009 10.9556C45.0273 10.7177 44.3348 10.3679 43.8234 9.90625C43.3156 9.4446 43.0617 8.83381 43.0617 8.07386C43.0617 7.44531 43.2322 6.89666 43.5731 6.42791C43.914 5.95916 44.3756 5.59517 44.958 5.33594C45.5404 5.07315 46.1974 4.94176 46.9289 4.94176C47.6675 4.94176 48.3192 5.07138 48.8838 5.33061C49.452 5.58984 49.8994 5.94673 50.2261 6.40128C50.5528 6.85227 50.7233 7.37074 50.7375 7.95668H49.1501ZM58.8035 7.95668C58.7466 7.45241 58.5123 7.06179 58.1003 6.7848C57.6884 6.50426 57.1699 6.36399 56.5449 6.36399C56.0975 6.36399 55.7104 6.43501 55.3837 6.57706C55.057 6.71555 54.8031 6.90732 54.622 7.15234C54.4444 7.39382 54.3557 7.66903 54.3557 7.97798C54.3557 8.23722 54.416 8.46094 54.5368 8.64915C54.6611 8.83736 54.8226 8.99538 55.0215 9.12322C55.2239 9.24751 55.4405 9.35227 55.6714 9.4375C55.9022 9.51918 56.1241 9.58665 56.3372 9.63991L57.4025 9.9169C57.7506 10.0021 58.1074 10.1175 58.4732 10.2631C58.839 10.4087 59.1781 10.6005 59.4906 10.8384C59.8031 11.0763 60.0552 11.3711 60.247 11.7227C60.4423 12.0742 60.54 12.495 60.54 12.9851C60.54 13.603 60.3802 14.1516 60.0606 14.631C59.7445 15.1104 59.2846 15.4886 58.681 15.7656C58.0808 16.0426 57.3546 16.1811 56.5023 16.1811C55.6856 16.1811 54.9789 16.0515 54.3823 15.7923C53.7857 15.533 53.3187 15.1655 52.9814 14.6896C52.644 14.2102 52.4576 13.642 52.4221 12.9851H54.0734C54.1053 13.3793 54.2332 13.7077 54.4569 13.9705C54.6841 14.2298 54.9736 14.4233 55.3251 14.5511C55.6802 14.6754 56.0691 14.7376 56.4917 14.7376C56.9569 14.7376 57.3706 14.6648 57.7328 14.5192C58.0986 14.37 58.3862 14.1641 58.5957 13.9013C58.8052 13.6349 58.91 13.3242 58.91 12.9691C58.91 12.646 58.8177 12.3814 58.633 12.1754C58.4519 11.9695 58.2051 11.799 57.8926 11.6641C57.5837 11.5291 57.2339 11.4102 56.8432 11.3072L55.5542 10.9556C54.6806 10.7177 53.9881 10.3679 53.4768 9.90625C52.9689 9.4446 52.715 8.83381 52.715 8.07386C52.715 7.44531 52.8855 6.89666 53.2264 6.42791C53.5673 5.95916 54.029 5.59517 54.6114 5.33594C55.1937 5.07315 55.8507 4.94176 56.5822 4.94176C57.3209 4.94176 57.9725 5.07138 58.5371 5.33061C59.1053 5.58984 59.5528 5.94673 59.8795 6.40128C60.2062 6.85227 60.3766 7.37074 60.3908 7.95668H58.8035Z" fill="#313552"/>
</svg>
