<svg width="92" height="25" viewBox="0 0 92 25" fill="none" xmlns="http://www.w3.org/2000/svg">
<path d="M0 10C0 4.47715 4.47715 0 10 0H82C87.5229 0 92 4.47715 92 10C92 15.5228 87.5229 20 82 20H53.4036C52.0256 20 50.7003 20.5296 49.7018 21.4793C47.628 23.4516 44.372 23.4516 42.2982 21.4793C41.2997 20.5296 39.9744 20 38.5964 20H10C4.47717 20 0 15.5228 0 10Z" fill="#FCF8E8"/>
<path d="M43.1242 8.53729C43.0212 8.21413 42.8827 7.92472 42.7087 7.66903C42.5382 7.4098 42.334 7.18963 42.0961 7.00852C41.8582 6.82386 41.5865 6.68359 41.2811 6.58771C40.9793 6.49183 40.6473 6.44389 40.285 6.44389C39.6707 6.44389 39.1167 6.60192 38.6231 6.91797C38.1295 7.23402 37.7389 7.69744 37.4512 8.30824C37.1671 8.91548 37.0251 9.65945 37.0251 10.5401C37.0251 11.4244 37.1689 12.1719 37.4566 12.7827C37.7442 13.3935 38.1384 13.8569 38.6391 14.1729C39.1398 14.489 39.7098 14.647 40.349 14.647C40.942 14.647 41.4587 14.5263 41.899 14.2848C42.3429 14.0433 42.6856 13.7024 42.9271 13.2621C43.1721 12.8182 43.2946 12.2962 43.2946 11.696L43.7208 11.7759H40.5993V10.4176H44.8873V11.6587C44.8873 12.5749 44.692 13.3704 44.3014 14.0451C43.9143 14.7163 43.3781 15.2347 42.6927 15.6005C42.0109 15.9663 41.2296 16.1491 40.349 16.1491C39.3617 16.1491 38.4953 15.9219 37.7495 15.4673C37.0073 15.0128 36.4285 14.3683 36.013 13.5337C35.5975 12.6957 35.3898 11.7013 35.3898 10.5508C35.3898 9.68075 35.5105 8.8995 35.752 8.20703C35.9935 7.51456 36.3326 6.92685 36.7694 6.44389C37.2098 5.95739 37.7264 5.58629 38.3195 5.33061C38.9161 5.07138 39.5677 4.94176 40.2744 4.94176C40.8639 4.94176 41.4125 5.02876 41.9203 5.20277C42.4317 5.37678 42.8862 5.62358 43.284 5.94318C43.6852 6.26278 44.0173 6.64276 44.2801 7.0831C44.5428 7.51989 44.7204 8.00462 44.8127 8.53729H43.1242ZM47.3616 16V7.81818H48.9542V16H47.3616ZM48.1659 6.55575C47.8889 6.55575 47.651 6.46342 47.4521 6.27876C47.2568 6.09055 47.1591 5.86683 47.1591 5.6076C47.1591 5.34482 47.2568 5.12109 47.4521 4.93643C47.651 4.74822 47.8889 4.65412 48.1659 4.65412C48.4429 4.65412 48.679 4.74822 48.8743 4.93643C49.0732 5.12109 49.1726 5.34482 49.1726 5.6076C49.1726 5.86683 49.0732 6.09055 48.8743 6.27876C48.679 6.46342 48.4429 6.55575 48.1659 6.55575ZM54.9162 7.81818V9.09659H50.4471V7.81818H54.9162ZM51.6456 5.85795H53.2382V13.5977C53.2382 13.9066 53.2844 14.1392 53.3767 14.2955C53.4691 14.4482 53.588 14.5529 53.7336 14.6097C53.8828 14.663 54.0444 14.6896 54.2184 14.6896C54.3462 14.6896 54.4581 14.6808 54.5539 14.663C54.6498 14.6452 54.7244 14.631 54.7777 14.6204L55.0653 15.9361C54.973 15.9716 54.8416 16.0071 54.6711 16.0426C54.5007 16.0817 54.2876 16.103 54.0319 16.1065C53.6129 16.1136 53.2223 16.0391 52.8601 15.8828C52.4978 15.7266 52.2049 15.4851 51.9811 15.1584C51.7574 14.8317 51.6456 14.4215 51.6456 13.9279V5.85795Z" fill="#313552"/>
</svg>
