<svg width="92" height="25" viewBox="0 0 92 25" fill="none" xmlns="http://www.w3.org/2000/svg">
<path d="M0 10C0 4.47715 4.47715 0 10 0H82C87.5229 0 92 4.47715 92 10C92 15.5228 87.5229 20 82 20H53.4036C52.0256 20 50.7003 20.5296 49.7018 21.4793C47.628 23.4516 44.372 23.4516 42.2982 21.4793C41.2997 20.5296 39.9744 20 38.5964 20H10C4.47717 20 0 15.5228 0 10Z" fill="#FCF8E8"/>
<path d="M34.0957 5.09091H35.7363V12.8253C35.7363 13.5249 35.5978 14.1232 35.3208 14.6204C35.0474 15.1175 34.6621 15.4975 34.1649 15.7603C33.6678 16.0195 33.0854 16.1491 32.4178 16.1491C31.8034 16.1491 31.2512 16.0373 30.7612 15.8136C30.2746 15.5898 29.8893 15.2649 29.6053 14.8388C29.3247 14.4091 29.1844 13.8871 29.1844 13.2727H30.8197C30.8197 13.5746 30.889 13.8356 31.0275 14.0558C31.1695 14.2759 31.3631 14.4482 31.6081 14.5724C31.8567 14.6932 32.1408 14.7536 32.4604 14.7536C32.8084 14.7536 33.1031 14.6808 33.3446 14.5352C33.5896 14.386 33.7761 14.1676 33.9039 13.88C34.0317 13.5923 34.0957 13.2408 34.0957 12.8253V5.09091ZM40.3852 16.1811C39.8667 16.1811 39.398 16.0852 38.9789 15.8935C38.5599 15.6982 38.2279 15.4158 37.9828 15.0465C37.7414 14.6772 37.6206 14.2244 37.6206 13.6882C37.6206 13.2266 37.7094 12.8466 37.887 12.5483C38.0645 12.25 38.3042 12.0138 38.6061 11.8398C38.9079 11.6658 39.2453 11.5344 39.6181 11.4457C39.991 11.3569 40.371 11.2894 40.758 11.2433C41.2481 11.1864 41.6458 11.1403 41.9512 11.1048C42.2566 11.0657 42.4786 11.0036 42.6171 10.9183C42.7556 10.8331 42.8248 10.6946 42.8248 10.5028V10.4656C42.8248 10.0004 42.6934 9.63991 42.4306 9.38423C42.1714 9.12855 41.7843 9.00071 41.2694 9.00071C40.7332 9.00071 40.3106 9.11967 40.0017 9.3576C39.6963 9.59197 39.485 9.85298 39.3678 10.1406L37.871 9.79972C38.0485 9.30256 38.3078 8.90128 38.6487 8.59588C38.9931 8.28693 39.3891 8.06321 39.8365 7.92472C40.284 7.78267 40.7545 7.71165 41.2481 7.71165C41.5748 7.71165 41.921 7.75071 42.2868 7.82884C42.6561 7.90341 43.0006 8.0419 43.3202 8.24432C43.6433 8.44673 43.9079 8.73615 44.1139 9.11257C44.3198 9.48544 44.4228 9.97017 44.4228 10.5668V16H42.8674V14.8814H42.8035C42.7005 15.0874 42.546 15.2898 42.3401 15.4886C42.1341 15.6875 41.8696 15.8526 41.5464 15.984C41.2232 16.1154 40.8362 16.1811 40.3852 16.1811ZM40.7314 14.9027C41.1718 14.9027 41.5482 14.8157 41.8607 14.6417C42.1767 14.4677 42.4164 14.2404 42.5798 13.9599C42.7467 13.6758 42.8301 13.3722 42.8301 13.049V11.9943C42.7733 12.0511 42.6632 12.1044 42.4999 12.1541C42.3401 12.2003 42.1572 12.2411 41.9512 12.2766C41.7453 12.3086 41.5446 12.3388 41.3493 12.3672C41.154 12.392 40.9906 12.4134 40.8593 12.4311C40.5503 12.4702 40.268 12.5359 40.0123 12.6282C39.7602 12.7205 39.5578 12.8537 39.4051 13.0277C39.2559 13.1982 39.1813 13.4254 39.1813 13.7095C39.1813 14.1037 39.3269 14.402 39.6181 14.6044C39.9093 14.8033 40.2804 14.9027 40.7314 14.9027ZM53.2505 7.81818L50.2835 16H48.579L45.6067 7.81818H47.3166L49.3886 14.1143H49.4739L51.5406 7.81818H53.2505ZM56.894 16.1811C56.3755 16.1811 55.9067 16.0852 55.4877 15.8935C55.0687 15.6982 54.7366 15.4158 54.4916 15.0465C54.2501 14.6772 54.1294 14.2244 54.1294 13.6882C54.1294 13.2266 54.2182 12.8466 54.3957 12.5483C54.5733 12.25 54.813 12.0138 55.1148 11.8398C55.4167 11.6658 55.7541 11.5344 56.1269 11.4457C56.4998 11.3569 56.8798 11.2894 57.2668 11.2433C57.7569 11.1864 58.1546 11.1403 58.46 11.1048C58.7654 11.0657 58.9874 11.0036 59.1259 10.9183C59.2643 10.8331 59.3336 10.6946 59.3336 10.5028V10.4656C59.3336 10.0004 59.2022 9.63991 58.9394 9.38423C58.6802 9.12855 58.2931 9.00071 57.7782 9.00071C57.242 9.00071 56.8194 9.11967 56.5104 9.3576C56.205 9.59197 55.9938 9.85298 55.8766 10.1406L54.3798 9.79972C54.5573 9.30256 54.8166 8.90128 55.1575 8.59588C55.5019 8.28693 55.8979 8.06321 56.3453 7.92472C56.7928 7.78267 57.2633 7.71165 57.7569 7.71165C58.0836 7.71165 58.4298 7.75071 58.7956 7.82884C59.1649 7.90341 59.5094 8.0419 59.829 8.24432C60.1521 8.44673 60.4167 8.73615 60.6227 9.11257C60.8286 9.48544 60.9316 9.97017 60.9316 10.5668V16H59.3762V14.8814H59.3123C59.2093 15.0874 59.0548 15.2898 58.8489 15.4886C58.6429 15.6875 58.3783 15.8526 58.0552 15.984C57.732 16.1154 57.345 16.1811 56.894 16.1811ZM57.2402 14.9027C57.6805 14.9027 58.057 14.8157 58.3695 14.6417C58.6855 14.4677 58.9252 14.2404 59.0886 13.9599C59.2555 13.6758 59.3389 13.3722 59.3389 13.049V11.9943C59.2821 12.0511 59.172 12.1044 59.0087 12.1541C58.8489 12.2003 58.666 12.2411 58.46 12.2766C58.2541 12.3086 58.0534 12.3388 57.8581 12.3672C57.6628 12.392 57.4994 12.4134 57.368 12.4311C57.0591 12.4702 56.7768 12.5359 56.5211 12.6282C56.269 12.7205 56.0666 12.8537 55.9139 13.0277C55.7647 13.1982 55.6901 13.4254 55.6901 13.7095C55.6901 14.1037 55.8357 14.402 56.1269 14.6044C56.4181 14.8033 56.7892 14.9027 57.2402 14.9027Z" fill="#313552"/>
</svg>
