<svg width="92" height="25" viewBox="0 0 92 25" fill="none" xmlns="http://www.w3.org/2000/svg">
<path d="M0 10C0 4.47715 4.47715 0 10 0H82C87.5229 0 92 4.47715 92 10C92 15.5228 87.5229 20 82 20H53.4036C52.0256 20 50.7003 20.5296 49.7018 21.4793C47.628 23.4516 44.372 23.4516 42.2982 21.4793C41.2997 20.5296 39.9744 20 38.5964 20H10C4.47717 20 0 15.5228 0 10Z" fill="#FCF8E8"/>
<path d="M19.0468 5.09091L22.083 13.9759H22.2055L25.2417 5.09091H27.0208L23.0951 16H21.1934L17.2676 5.09091H19.0468ZM34.5461 7.95668C34.4893 7.45241 34.2549 7.06179 33.843 6.7848C33.4311 6.50426 32.9126 6.36399 32.2876 6.36399C31.8402 6.36399 31.4531 6.43501 31.1264 6.57706C30.7997 6.71555 30.5458 6.90732 30.3647 7.15234C30.1871 7.39382 30.0983 7.66903 30.0983 7.97798C30.0983 8.23722 30.1587 8.46094 30.2795 8.64915C30.4037 8.83736 30.5653 8.99538 30.7642 9.12322C30.9666 9.24751 31.1832 9.35227 31.414 9.4375C31.6449 9.51918 31.8668 9.58665 32.0799 9.63991L33.1452 9.9169C33.4932 10.0021 33.8501 10.1175 34.2159 10.2631C34.5817 10.4087 34.9208 10.6005 35.2333 10.8384C35.5458 11.0763 35.7979 11.3711 35.9897 11.7227C36.185 12.0742 36.2826 12.495 36.2826 12.9851C36.2826 13.603 36.1228 14.1516 35.8032 14.631C35.4872 15.1104 35.0273 15.4886 34.4236 15.7656C33.8235 16.0426 33.0973 16.1811 32.245 16.1811C31.4282 16.1811 30.7216 16.0515 30.125 15.7923C29.5284 15.533 29.0614 15.1655 28.7241 14.6896C28.3867 14.2102 28.2003 13.642 28.1648 12.9851H29.816C29.848 13.3793 29.9758 13.7077 30.1996 13.9705C30.4268 14.2298 30.7162 14.4233 31.0678 14.5511C31.4229 14.6754 31.8118 14.7376 32.2344 14.7376C32.6996 14.7376 33.1133 14.6648 33.4755 14.5192C33.8412 14.37 34.1289 14.1641 34.3384 13.9013C34.5479 13.6349 34.6527 13.3242 34.6527 12.9691C34.6527 12.646 34.5603 12.3814 34.3757 12.1754C34.1946 11.9695 33.9478 11.799 33.6353 11.6641C33.3263 11.5291 32.9765 11.4102 32.5859 11.3072L31.2969 10.9556C30.4233 10.7177 29.7308 10.3679 29.2194 9.90625C28.7116 9.4446 28.4577 8.83381 28.4577 8.07386C28.4577 7.44531 28.6282 6.89666 28.9691 6.42791C29.31 5.95916 29.7716 5.59517 30.354 5.33594C30.9364 5.07315 31.5934 4.94176 32.3249 4.94176C33.0635 4.94176 33.7152 5.07138 34.2798 5.33061C34.848 5.58984 35.2954 5.94673 35.6221 6.40128C35.9488 6.85227 36.1193 7.37074 36.1335 7.95668H34.5461ZM47.3103 8.63849H45.6483C45.5844 8.28338 45.4654 7.97088 45.2914 7.70099C45.1174 7.43111 44.9044 7.20206 44.6522 7.01385C44.4001 6.82564 44.1178 6.68359 43.8053 6.58771C43.4963 6.49183 43.1679 6.44389 42.8198 6.44389C42.1913 6.44389 41.6284 6.60192 41.1313 6.91797C40.6377 7.23402 40.247 7.69744 39.9594 8.30824C39.6753 8.91903 39.5333 9.66477 39.5333 10.5455C39.5333 11.4332 39.6753 12.1825 39.9594 12.7933C40.247 13.4041 40.6394 13.8658 41.1366 14.1783C41.6338 14.4908 42.1931 14.647 42.8145 14.647C43.159 14.647 43.4857 14.6009 43.7946 14.5085C44.1071 14.4126 44.3894 14.2724 44.6416 14.0877C44.8937 13.9031 45.1068 13.6776 45.2808 13.4112C45.4583 13.1413 45.5809 12.8324 45.6483 12.4844L47.3103 12.4897C47.2215 13.0259 47.0493 13.5195 46.7936 13.9705C46.5414 14.418 46.2165 14.805 45.8188 15.1317C45.4246 15.4549 44.9736 15.7053 44.4658 15.8828C43.958 16.0604 43.404 16.1491 42.8039 16.1491C41.8593 16.1491 41.0176 15.9254 40.279 15.478C39.5404 15.027 38.958 14.3825 38.5318 13.5444C38.1093 12.7063 37.898 11.7067 37.898 10.5455C37.898 9.38068 38.111 8.38104 38.5372 7.54652C38.9633 6.70845 39.5457 6.0657 40.2843 5.61825C41.023 5.16726 41.8628 4.94176 42.8039 4.94176C43.3827 4.94176 43.9225 5.02521 44.4232 5.19212C44.9274 5.35547 45.3802 5.59695 45.7815 5.91655C46.1828 6.2326 46.5148 6.61967 46.7776 7.07777C47.0404 7.53232 47.2179 8.05256 47.3103 8.63849ZM52.5983 16.1651C51.8313 16.1651 51.1619 15.9893 50.5902 15.6378C50.0184 15.2862 49.5746 14.7944 49.2585 14.1623C48.9424 13.5302 48.7844 12.7915 48.7844 11.9464C48.7844 11.0977 48.9424 10.3555 49.2585 9.71982C49.5746 9.08416 50.0184 8.59055 50.5902 8.23899C51.1619 7.88743 51.8313 7.71165 52.5983 7.71165C53.3654 7.71165 54.0348 7.88743 54.6065 8.23899C55.1782 8.59055 55.6221 9.08416 55.9382 9.71982C56.2542 10.3555 56.4123 11.0977 56.4123 11.9464C56.4123 12.7915 56.2542 13.5302 55.9382 14.1623C55.6221 14.7944 55.1782 15.2862 54.6065 15.6378C54.0348 15.9893 53.3654 16.1651 52.5983 16.1651ZM52.6037 14.8281C53.1008 14.8281 53.5128 14.6967 53.8395 14.4339C54.1662 14.1712 54.4076 13.8214 54.5639 13.3846C54.7237 12.9478 54.8036 12.4666 54.8036 11.9411C54.8036 11.419 54.7237 10.9396 54.5639 10.5028C54.4076 10.0625 54.1662 9.70916 53.8395 9.44283C53.5128 9.17649 53.1008 9.04332 52.6037 9.04332C52.103 9.04332 51.6875 9.17649 51.3572 9.44283C51.0305 9.70916 50.7873 10.0625 50.6275 10.5028C50.4712 10.9396 50.3931 11.419 50.3931 11.9411C50.3931 12.4666 50.4712 12.9478 50.6275 13.3846C50.7873 13.8214 51.0305 14.1712 51.3572 14.4339C51.6875 14.6967 52.103 14.8281 52.6037 14.8281ZM61.2529 16.1598C60.5924 16.1598 60.0029 15.9911 59.4844 15.6538C58.9695 15.3129 58.5647 14.8281 58.27 14.1996C57.9788 13.5675 57.8332 12.8093 57.8332 11.9251C57.8332 11.0408 57.9805 10.2844 58.2753 9.65589C58.5736 9.02734 58.982 8.54616 59.5004 8.21236C60.0189 7.87855 60.6066 7.71165 61.2636 7.71165C61.7714 7.71165 62.1798 7.79688 62.4887 7.96733C62.8012 8.13423 63.0427 8.32955 63.2131 8.55327C63.3871 8.77699 63.5221 8.97408 63.618 9.14453H63.7138V5.09091H65.3065V16H63.7511V14.7269H63.618C63.5221 14.9009 63.3836 15.0998 63.2025 15.3235C63.0249 15.5472 62.7799 15.7425 62.4674 15.9094C62.1549 16.0763 61.7501 16.1598 61.2529 16.1598ZM61.6045 14.8015C62.0626 14.8015 62.4496 14.6808 62.7657 14.4393C63.0853 14.1942 63.3268 13.8551 63.4901 13.4219C63.657 12.9886 63.7405 12.4844 63.7405 11.9091C63.7405 11.3409 63.6588 10.8437 63.4955 10.4176C63.3321 9.99148 63.0924 9.65945 62.7763 9.42152C62.4603 9.18359 62.0697 9.06463 61.6045 9.06463C61.1251 9.06463 60.7256 9.18892 60.406 9.4375C60.0864 9.68608 59.8449 10.0252 59.6815 10.4549C59.5217 10.8846 59.4418 11.3693 59.4418 11.9091C59.4418 12.456 59.5235 12.9478 59.6869 13.3846C59.8502 13.8214 60.0917 14.1676 60.4113 14.4233C60.7344 14.6754 61.1322 14.8015 61.6045 14.8015ZM71.106 16.1651C70.2999 16.1651 69.6056 15.9929 69.0232 15.6484C68.4444 15.3004 67.997 14.8121 67.6809 14.1836C67.3684 13.5515 67.2122 12.8111 67.2122 11.9624C67.2122 11.1243 67.3684 10.3857 67.6809 9.74645C67.997 9.10724 68.4373 8.60831 69.0019 8.24964C69.5701 7.89098 70.2342 7.71165 70.9941 7.71165C71.4558 7.71165 71.9032 7.788 72.3364 7.9407C72.7697 8.09339 73.1585 8.3331 73.503 8.6598C73.8475 8.98651 74.1191 9.41087 74.318 9.93288C74.5168 10.4513 74.6163 11.0817 74.6163 11.8239V12.3885H68.1124V11.1953H73.0556C73.0556 10.7763 72.9703 10.4052 72.7999 10.082C72.6294 9.75533 72.3897 9.49787 72.0808 9.30966C71.7754 9.12145 71.4167 9.02734 71.0048 9.02734C70.5573 9.02734 70.1667 9.13743 69.8329 9.3576C69.5026 9.57422 69.247 9.85831 69.0659 10.2099C68.8883 10.5579 68.7995 10.9361 68.7995 11.3445V12.2766C68.7995 12.8235 68.8954 13.2887 69.0872 13.6722C69.2825 14.0558 69.5541 14.3487 69.9021 14.5511C70.2502 14.75 70.6568 14.8494 71.122 14.8494C71.4238 14.8494 71.699 14.8068 71.9476 14.7216C72.1962 14.6328 72.411 14.5014 72.5921 14.3274C72.7732 14.1534 72.9117 13.9386 73.0076 13.6829L74.5151 13.9545C74.3943 14.3984 74.1777 14.7873 73.8652 15.1211C73.5563 15.4513 73.1674 15.7088 72.6987 15.8935C72.2335 16.0746 71.7026 16.1651 71.106 16.1651Z" fill="#313552"/>
</svg>
