<svg width="80" height="80" viewBox="0 0 80 80" fill="none" xmlns="http://www.w3.org/2000/svg">
<path d="M60.3238 0.498C60.6998 0.682 71.6998 5.93 77.0718 8.494C78.8458 9.34 79.9718 11.128 79.9718 13.092V66.812C79.9718 68.774 78.8538 70.56 77.0858 71.41C71.9898 73.866 61.8638 78.742 61.1898 79.062C60.6938 79.298 59.3898 80 58.3338 80C56.9778 80 56.0678 79.368 55.1738 78.54L59.9718 63.422V3.43L55.4638 1.16C56.4278 0.218 57.7638 0 58.5538 0C59.2778 0 59.8678 0.276 60.3238 0.498Z" fill="url(#paint0_linear_129_251)"/>
<path d="M9.97152 59.792L59.9715 21.746V3.66004C59.9715 1.06204 56.6475 0.0440363 55.2975 1.29204C53.9875 2.50004 1.28752 50.478 1.28752 50.478C-0.512479 52.138 -0.410479 55.012 1.50152 56.542C1.50152 56.542 4.14952 59.006 5.10752 59.69C6.57952 60.74 8.51352 60.86 9.97152 59.792Z" fill="url(#paint1_linear_129_251)"/>
<path d="M9.97152 20.2081L59.9715 58.3161V75.8581C59.9715 78.2541 57.1315 80.2441 55.1735 78.5401L1.28752 29.5221C-0.512479 27.8621 -0.410479 24.9881 1.50152 23.4581C1.50152 23.4581 4.14952 20.9941 5.10752 20.3101C6.57952 19.2601 8.51352 19.1401 9.97152 20.2081Z" fill="#0288D1"/>
<defs>
<linearGradient id="paint0_linear_129_251" x1="67.5718" y1="78.74" x2="67.5718" y2="6.84" gradientUnits="userSpaceOnUse">
<stop stop-color="#29B6F6"/>
<stop offset="1" stop-color="#13B2F6"/>
</linearGradient>
<linearGradient id="paint1_linear_129_251" x1="4.14152" y1="61.602" x2="61.5575" y2="6.34604" gradientUnits="userSpaceOnUse">
<stop offset="0.115" stop-color="#0076BB"/>
<stop offset="0.257" stop-color="#0069B0"/>
<stop offset="0.28" stop-color="#0069B0"/>
<stop offset="0.424" stop-color="#0069B0"/>
<stop offset="0.491" stop-color="#0072B7"/>
<stop offset="0.577" stop-color="#0076BB"/>
<stop offset="0.795" stop-color="#0076BB"/>
<stop offset="1" stop-color="#006EB9"/>
</linearGradient>
</defs>
</svg>
