<svg width="35" height="31" viewBox="0 0 35 31" fill="none" xmlns="http://www.w3.org/2000/svg">
<path d="M17.5 0.134155L0 10.589V26.5903C0 28.9475 1.91795 30.8655 4.27517 30.8655H30.7248C33.0821 30.8655 35 28.9475 35 26.5903V10.589L17.5 0.134155ZM30.5031 11.151L17.6701 19.1528L17.6037 19.1886C17.593 19.1942 17.5827 19.1993 17.5683 19.2049L17.553 19.2086C17.5167 19.2174 17.5 19.2179 17.4995 19.2179C17.4995 19.2179 17.4823 19.2174 17.4372 19.2067L17.4293 19.2049C17.4177 19.2002 17.4052 19.1942 17.3884 19.1858C17.3703 19.1756 17.3517 19.1654 17.3331 19.1556L4.49737 11.151L17.5 3.38295L30.5031 11.151ZM30.7248 28.0769H4.27517C3.45565 28.0769 2.78907 27.4103 2.78907 26.5912V13.3725L15.8926 21.543C15.9404 21.5732 15.9888 21.6002 16.0395 21.6262C16.0669 21.6411 16.0938 21.6555 16.1194 21.6681C16.323 21.7731 16.5303 21.8531 16.726 21.9042L16.8339 21.9298C17.0598 21.9809 17.2834 22.0069 17.5014 22.0069C17.718 22.0069 17.943 21.9805 18.1703 21.9284L18.2633 21.907C18.4692 21.8535 18.677 21.7731 18.8764 21.6699C18.9052 21.6555 18.9336 21.6406 18.9633 21.6244L32.2109 13.3711V26.5903C32.2109 27.4103 31.5443 28.0769 30.7248 28.0769Z" fill="#82DBD8"/>
</svg>
