<svg width="59" height="59" viewBox="0 0 59 59" fill="none" xmlns="http://www.w3.org/2000/svg">
<path d="M29.1667 58.3334C34.9353 58.3334 40.5744 56.6228 45.3708 53.4179C50.1673 50.213 53.9056 45.6578 56.1132 40.3283C58.3207 34.9988 58.8983 29.1344 57.7729 23.4766C56.6475 17.8188 53.8697 12.6218 49.7906 8.54276C45.7116 4.46373 40.5146 1.68587 34.8568 0.560467C29.199 -0.564938 23.3346 0.012661 18.0051 2.22022C12.6756 4.42777 8.12038 8.16614 4.9155 12.9626C1.71063 17.759 3.43323e-05 23.3981 3.43323e-05 29.1667C3.43323e-05 32.9969 0.754448 36.7896 2.22021 40.3283C3.68597 43.867 5.83438 47.0823 8.54275 49.7907C11.2511 52.499 14.4664 54.6474 18.0051 56.1132C21.5438 57.579 25.3365 58.3334 29.1667 58.3334ZM18.4042 23.7417L27.1542 15.4C27.2807 15.2766 27.4291 15.1777 27.5917 15.1084C27.7289 14.9845 27.8869 14.8858 28.0584 14.8167C28.4075 14.6624 28.785 14.5827 29.1667 14.5827C29.5484 14.5827 29.9259 14.6624 30.275 14.8167C30.6331 14.9555 30.9601 15.1637 31.2375 15.4292L39.9875 24.1792C40.5367 24.7284 40.8453 25.4733 40.8453 26.25C40.8453 27.0268 40.5367 27.7717 39.9875 28.3209C39.4383 28.8701 38.6934 29.1786 37.9167 29.1786C37.14 29.1786 36.3951 28.8701 35.8459 28.3209L32.0834 24.5292L32.0834 40.8334C32.0834 41.6069 31.7761 42.3488 31.2291 42.8958C30.6821 43.4427 29.9402 43.75 29.1667 43.75C28.3931 43.75 27.6513 43.4427 27.1043 42.8958C26.5573 42.3488 26.25 41.6069 26.25 40.8334L26.25 24.325L22.4292 27.9709C21.8684 28.5046 21.1185 28.7937 20.3445 28.7746C19.5705 28.7554 18.8359 28.4296 18.3021 27.8688C17.7684 27.308 17.4793 26.5581 17.4984 25.7841C17.5175 25.0101 17.8434 24.2755 18.4042 23.7417Z" fill="#E9DAC1"/>
</svg>
